<?xml version="1.0" encoding="UTF-8" standalone="no"?>
<!-- Created with Inkscape (http://www.inkscape.org/) -->

<svg
   width="350mm"
   height="350mm"
   viewBox="0 0 350 350"
   version="1.1"
   id="svg1"
   inkscape:version="1.4 (86a8ad7, 2024-10-11)"
   sodipodi:docname="favicon.svg"
   xmlns:inkscape="http://www.inkscape.org/namespaces/inkscape"
   xmlns:sodipodi="http://sodipodi.sourceforge.net/DTD/sodipodi-0.dtd"
   xmlns="http://www.w3.org/2000/svg"
   xmlns:svg="http://www.w3.org/2000/svg">
  <sodipodi:namedview
     id="namedview1"
     pagecolor="#505050"
     bordercolor="#ffffff"
     borderopacity="1"
     inkscape:showpageshadow="0"
     inkscape:pageopacity="0"
     inkscape:pagecheckerboard="1"
     inkscape:deskcolor="#505050"
     inkscape:document-units="mm"
     inkscape:zoom="0.36302259"
     inkscape:cx="391.16023"
     inkscape:cy="786.45244"
     inkscape:window-width="1920"
     inkscape:window-height="1017"
     inkscape:window-x="1592"
     inkscape:window-y="-8"
     inkscape:window-maximized="1"
     inkscape:current-layer="layer1" />
  <defs
     id="defs1">
    <inkscape:path-effect
       effect="bend_path"
       id="path-effect9"
       is_visible="true"
       lpeversion="1"
       bendpath="M 14.758896,9.6661383 C 40.790399,20.102143 99.761785,17.064498 131.4831,3.8617663"
       prop_scale="1"
       scale_y_rel="false"
       vertical="false"
       hide_knot="false" />
  </defs>
  <g
     inkscape:label="Layer 1"
     inkscape:groupmode="layer"
     id="layer1"
     transform="translate(105.4939,337.82108)">
    <path
       id="path5"
       style="fill:#ffffff;stroke:none;stroke-width:0.959505;stroke-dasharray:none"
       d="m 124.24758,-286.985 c -6.15485,4.32024 -14.41156,7.87191 -25.056178,10.7334 -9.180026,2.46357 -19.526782,4.19771 -30.913498,5.00101 -9.526704,0.67168 -19.738142,0.70468 -30.15685,-0.41302 -3.130115,-0.3363 -6.308013,-0.75896 -9.464055,-1.34323 3.104303,0.82839 6.261677,1.46218 9.400587,1.97493 10.283274,1.68321 20.548343,1.90053 30.297173,1.30603 11.229978,-0.68327 21.647214,-2.4484 31.15398,-4.8597 7.847391,-1.9905 14.646001,-4.26843 20.790481,-6.91744 1.40303,-1.80149 2.72464,-3.62904 3.94836,-5.48198 z m -95.590581,13.97816 c 3.248899,0.54137 6.469494,0.90729 9.480417,1.18307 11.450965,1.04536 21.943232,0.68279 30.111234,-0.007 12.595601,-1.06508 22.581769,-3.18136 30.595671,-5.65206 -0.983358,-2.16581 -2.604748,-4.0706 -4.729302,-5.25092 -1.333443,-0.74081 -2.813416,-1.60983 -4.237427,-1.26984 -3.006847,0.7179 -6.045894,1.33069 -9.105568,1.86832 0.521008,1.8325 1.002282,3.95496 1.398758,6.53217 -0.837846,-2.46994 -2.018807,-4.46427 -3.35831,-6.19798 -3.637796,0.59986 -7.304541,1.0997 -10.987763,1.54355 -5.832307,0.69564 -11.71734,1.26684 -17.566043,1.77509 -3.092748,0.26877 -6.289417,0.29593 -9.527027,0.20726 0.221998,1.72237 0.296278,3.70453 0.106605,6.06806 -0.288835,-2.40645 -1.000145,-4.39051 -1.918396,-6.12756 l -0.125447,-0.005 c -7.151176,-0.33239 -14.018086,-0.86599 -20.741387,-1.0373 -1.767002,-0.045 -2.73705,0.31163 -3.11287,1.06259 -0.825359,1.64921 1.337343,4.91942 4.851276,7.92696 3.545194,3.03428 7.891722,5.36256 10.305492,6.19945 2.347974,0.81409 4.713766,1.48524 7.064696,2.03988 1.534207,0.37109 3.078905,0.69718 4.631124,0.98077 1.255206,-1.76703 2.343881,-4.11598 3.141628,-7.65772 -0.110836,3.09381 -0.637325,5.6575 -1.365537,7.95076 8.394633,1.35547 16.901314,1.49303 25.272352,0.81664 1.013201,-0.0806 2.02579,-0.17308 3.037503,-0.27717 0.685305,-2.35425 1.125942,-5.02574 1.143897,-8.34693 0.53224,3.41979 0.807326,6.00165 0.915813,8.1243 6.520747,-0.77162 12.968434,-2.00749 19.29404,-3.60672 4.544665,-1.14898 6.59928,-4.65802 6.674966,-8.32512 0.0086,-0.4162 -0.0077,-0.83532 -0.04855,-1.25397 l -0.18197,0.0412 c -10.137746,2.27748 -20.536517,3.92962 -31.294804,4.52105 -9.343685,0.51554 -19.628061,0.27994 -30.34279,-1.67246 -3.055674,-0.5554 -6.22599,-1.24797 -9.382242,-2.15343 z m 27.358838,32.51208 a 11.325362,18.479015 0 0 0 -11.325429,18.47938 11.325362,18.479015 0 0 0 11.325429,18.47887 11.325362,18.479015 0 0 0 11.324934,-18.47887 11.325362,18.479015 0 0 0 -11.324934,-18.47938 z m 26.98101,0 a 11.325362,18.479015 0 0 0 -11.32543,18.47938 11.325362,18.479015 0 0 0 11.32543,18.47887 11.325362,18.479015 0 0 0 11.324935,-18.47887 11.325362,18.479015 0 0 0 -11.324935,-18.47938 z m -45.892261,34.51031 a 11.325362,18.479015 0 0 0 -10.888596,13.45307 v -0.0565 c -0.925161,2.60534 -8.495651,2.48556 -12.237771,1.92335 -3.742121,-0.56221 -66.522581,-7.51789 -66.522581,-7.51789 -0.442393,-0.0471 -0.87151,-0.0713 -1.286202,-0.0739 -2.902843,-0.018 -5.090938,1.04579 -6.056659,3.04642 l -30.162304,63.8168 5.308439,-5.30893 30.910028,-55.23434 30.782102,4.14123 -15.227673,56.85325 -0.66839,2.49555 2.400351,-2.58282 16.482638,-56.74168 34.040251,3.05039 12.091003,1.20885 a 11.325362,18.479015 0 0 0 11.035364,14.48491 11.325362,18.479015 0 0 0 11.32543,-18.47887 11.325362,18.479015 0 0 0 -11.32543,-18.47888 z m -73.649256,74.95529 c 8.903313,-8.8507 24.25925,-19.57556 42.3043792,-12.67808 l 8.0221588,-40.5982 -33.445741,-2.57142 z m -1.731961,0.0873 14.42392,-56.23544 -29.281697,-3.62555 -31.60668,54.10084 c 14.426573,-5.03102 34.345526,-2.39532 46.464457,5.76015 z M 101.90761,-205.9844 a 11.325362,18.479015 0 0 0 -11.325434,18.47887 11.325362,18.479015 0 0 0 11.325434,18.47888 11.325362,18.479015 0 0 0 11.03536,-14.48491 l 12.091,-1.20885 34.04075,-3.05039 16.48264,56.74168 2.39985,2.58282 -0.66838,-2.49555 -15.22768,-56.85325 30.7826,-4.14124 30.91003,55.23434 5.30794,5.30893 -30.16181,-63.81679 c -0.96572,-2.00063 -3.15381,-3.06437 -6.05666,-3.04643 -0.41469,0.003 -0.8438,0.0268 -1.2862,0.0739 0,0 -62.78097,6.95568 -66.52308,7.5179 -3.74213,0.56221 -11.31262,0.68197 -12.23777,-1.92336 v 0.01 a 11.325362,18.479015 0 0 0 -10.88859,-13.40646 z m 121.84617,69.2824 -31.60718,-54.10084 -29.2817,3.62555 14.42393,56.23544 c 12.11893,-8.15547 32.03837,-10.79117 46.46495,-5.76015 z m -48.19642,5.67288 -16.88129,-55.84769 -33.44525,2.57141 8.02216,40.59821 c 18.04513,-6.89748 33.40107,3.82737 42.30438,12.67807 z m -106.051266,-69.5383 a 16.98834,19.214502 0 0 0 -8.494196,2.57389 16.98834,19.214502 0 0 0 -2.425638,1.92136 16.98834,19.214502 0 0 0 -2.093923,2.36813 16.98834,19.214502 0 0 0 -1.69874,2.74396 16.98834,19.214502 0 0 0 -1.157781,2.80892 16.98834,19.214502 0 0 0 -0.465095,1.79493 16.98834,19.214502 0 0 0 -0.276678,1.16721 16.98834,19.214502 0 0 0 -0.245936,2.15441 16.98834,19.214502 0 0 0 -0.06793,0.87614 16.98834,19.214502 0 0 0 0.05751,2.35375 16.98834,19.214502 0 0 0 0.0099,0.41253 l -0.04909,-0.0863 c 0.34777,5.77161 -2.018321,10.40769 -7.098908,13.90776 l 0.0099,4.9e-4 a 16.98834,19.214502 0 0 0 -0.780945,0.48543 16.98834,19.214502 0 0 0 -1.095801,0.68178 16.98834,19.214502 0 0 0 -1.332316,1.05514 16.98834,19.214502 0 0 0 -0.927712,0.81119 16.98834,19.214502 0 0 0 -1.287691,1.45627 16.98834,19.214502 0 0 0 -0.67186,0.80376 16.98834,19.214502 0 0 0 -1.607506,2.5967 16.98834,19.214502 0 0 0 -2.276391,9.60735 16.98834,19.214502 0 0 0 2.276391,9.60735 16.98834,19.214502 0 0 0 1.69874,2.74347 16.98834,19.214502 0 0 0 2.093427,2.36813 16.98834,19.214502 0 0 0 2.425639,1.92137 16.98834,19.214502 0 0 0 8.494195,2.57389 16.98834,19.214502 0 0 0 2.729587,-0.26974 16.98834,19.214502 0 0 0 1.608994,-0.44228 16.98834,19.214502 0 0 0 1.029854,-0.31238 16.98834,19.214502 0 0 0 1.774108,-0.83697 16.98834,19.214502 0 0 0 0.70409,-0.37139 16.98834,19.214502 0 0 0 1.772123,-1.23216 16.98834,19.214502 0 0 0 0.311882,-0.21667 l -0.04115,0.0908 c 4.245373,-3.22645 8.97805,-3.22645 14.198313,0 l -0.005,-0.01 a 16.98834,19.214502 0 0 0 0.764582,0.5236 16.98834,19.214502 0 0 0 1.066547,0.73037 16.98834,19.214502 0 0 0 1.473134,0.77748 16.98834,19.214502 0 0 0 1.089355,0.50476 16.98834,19.214502 0 0 0 1.745845,0.52905 16.98834,19.214502 0 0 0 0.964404,0.25933 16.98834,19.214502 0 0 0 2.790077,0.27618 16.98834,19.214502 0 0 0 8.494202,-2.57439 16.98834,19.214502 0 0 0 2.358702,-1.86782 16.98834,19.214502 0 0 0 0.105612,-0.0972 16.98834,19.214502 0 0 0 1.987815,-2.24813 16.98834,19.214502 0 0 0 0.117511,-0.15768 16.98834,19.214502 0 0 0 1.605034,-2.59223 16.98834,19.214502 0 0 0 0.0838,-0.1681 16.98834,19.214502 0 0 0 1.19794,-2.90461 16.98834,19.214502 0 0 0 0.0277,-0.0937 16.98834,19.214502 0 0 0 0.73782,-3.11484 16.98834,19.214502 0 0 0 0.0169,-0.0937 16.98834,19.214502 0 0 0 0.24692,-3.19121 16.98834,19.214502 0 0 0 0.009,-0.11107 16.98834,19.214502 0 0 0 -0.007,-0.0872 16.98834,19.214502 0 0 0 -0.24297,-3.14609 16.98834,19.214502 0 0 0 -0.0337,-0.21122 16.98834,19.214502 0 0 0 -0.72591,-3.06527 16.98834,19.214502 0 0 0 -0.0506,-0.14876 16.98834,19.214502 0 0 0 -1.2158,-2.94825 16.98834,19.214502 0 0 0 -1.572305,-2.53968 16.98834,19.214502 0 0 0 -1.137943,-1.34818 16.98834,19.214502 0 0 0 -0.759631,-0.8588 16.98834,19.214502 0 0 0 -1.520728,-1.31446 16.98834,19.214502 0 0 0 -0.643597,-0.50972 16.98834,19.214502 0 0 0 -1.829641,-1.11911 16.98834,19.214502 0 0 0 -0.320312,-0.19635 l 0.09019,-0.006 c -4.593144,-2.54517 -6.959733,-7.18074 -7.099408,-13.90726 l -0.0048,0.01 a 16.98834,19.214502 0 0 0 0.0048,-0.0695 16.98834,19.214502 0 0 0 0.0307,-0.4051 16.98834,19.214502 0 0 0 0.03771,-0.82011 16.98834,19.214502 0 0 0 0.0077,-0.33916 16.98834,19.214502 0 0 0 -0.0086,-0.89002 16.98834,19.214502 0 0 0 -0.01094,-0.31387 16.98834,19.214502 0 0 0 -0.05997,-0.9168 16.98834,19.214502 0 0 0 -0.02581,-0.27768 16.98834,19.214502 0 0 0 -0.113548,-0.9401 16.98834,19.214502 0 0 0 -0.03723,-0.24346 16.98834,19.214502 0 0 0 -0.169574,-0.95399 16.98834,19.214502 0 0 0 -0.04807,-0.22858 16.98834,19.214502 0 0 0 -0.229072,-0.96689 16.98834,19.214502 0 0 0 -0.0471,-0.17254 16.98834,19.214502 0 0 0 -0.297007,-0.99763 16.98834,19.214502 0 0 0 -0.03868,-0.11504 16.98834,19.214502 0 0 0 -0.364937,-1.01349 16.98834,19.214502 0 0 0 -0.03768,-0.0932 16.98834,19.214502 0 0 0 -0.436833,-1.02192 16.98834,19.214502 0 0 0 -0.0099,-0.0208 16.98834,19.214502 0 0 0 -0.336178,-0.69169 16.98834,19.214502 0 0 0 -0.04363,-0.0704 16.98834,19.214502 0 0 0 -1.602051,-2.58827 16.98834,19.214502 0 0 0 -0.123465,-0.16561 16.98834,19.214502 0 0 0 -1.983846,-2.24417 16.98834,19.214502 0 0 0 -0.107597,-0.0977 16.98834,19.214502 0 0 0 -2.357708,-1.86733 16.98834,19.214502 0 0 0 -8.4937,-2.57389 z m -108.649449,96.75479 a 4.7975228,4.7975228 0 0 0 -2.3111,0.6193 4.7975228,4.7975228 0 0 0 -0.173048,0.10859 4.7975228,4.7975228 0 0 0 -1.585688,1.58568 4.7975228,4.7975228 0 0 0 -0.109085,0.17355 4.7975228,4.7975228 0 0 0 -0.618805,2.310603 v 22.930518 a 4.7975228,4.7975228 0 0 0 4.797726,4.797724 4.7975228,4.7975228 0 0 0 4.797229,-4.797724 v -17.942879 c 6.645914,0.49994 12.392223,2.035253 17.567532,4.314776 v 13.630079 a 4.7975228,4.7975228 0 0 0 4.79723,4.797725 4.7975228,4.7975228 0 0 0 4.7977257,-4.797725 v -8.249743 c 5.4537884,3.738729 10.4169743,8.283211 15.4388989,13.09408 -5.0219246,4.810966 -9.9851105,9.356033 -15.4388989,13.095079 v -8.248755 a 4.7975228,4.7975228 0 0 0 -4.7977257,-4.797734 4.7975228,4.7975228 0 0 0 -4.79723,4.797734 v 13.62958 c -5.175309,2.279782 -10.921618,3.815258 -17.567532,4.315275 v -17.944855 a 4.7975228,4.7975228 0 0 0 -4.797229,-4.797734 4.7975228,4.7975228 0 0 0 -4.797726,4.797734 v 22.932494 a 4.7975228,4.7975228 0 0 0 0.618805,2.310602 4.7975228,4.7975228 0 0 0 0.109085,0.173536 4.7975228,4.7975228 0 0 0 1.585688,1.585697 4.7975228,4.7975228 0 0 0 0.173048,0.108587 4.7975228,4.7975228 0 0 0 2.3111,0.619303 c 11.185362,0 20.443932,-2.575061 28.488853,-6.539609 a 4.7975228,4.7975228 0 0 0 1.5103214,-0.738301 c 9.44110162,-4.947925 17.1532592,-11.811165 24.3253026,-18.660358 7.172261,6.849395 14.884299,13.712923 24.325798,18.660857 a 4.7975228,4.7975228 0 0 0 1.508338,0.737312 c 8.04515,3.964827 17.304517,6.540099 28.490341,6.540099 11.185361,0 20.443927,-2.575061 28.48886,-6.539609 a 4.7975228,4.7975228 0 0 0 1.510317,-0.738301 c 9.441624,-4.948193 17.153914,-11.811779 24.326294,-18.661346 7.17229,6.849481 14.88429,13.71321 24.3258,18.661346 a 4.7975228,4.7975228 0 0 0 1.51033,0.738301 c 8.04491,3.964548 17.30348,6.539609 28.48885,6.539609 a 4.7975228,4.7975228 0 0 0 2.3111,-0.619303 4.7975228,4.7975228 0 0 0 0.17304,-0.108587 4.7975228,4.7975228 0 0 0 1.58569,-1.585697 4.7975228,4.7975228 0 0 0 0.10909,-0.173536 4.7975228,4.7975228 0 0 0 0.6188,-2.310602 v -22.932494 a 4.7975228,4.7975228 0 0 0 -4.79772,-4.797734 4.7975228,4.7975228 0 0 0 -4.79724,4.797734 v 17.944855 c -6.64576,-0.499997 -12.3921,-2.035118 -17.56753,-4.314777 v -13.630078 a 4.7975228,4.7975228 0 0 0 -4.79722,-4.797734 4.7975228,4.7975228 0 0 0 -4.79773,4.797734 v 8.249244 c -5.45445,-3.739151 -10.41812,-8.284362 -15.44039,-13.095568 5.02227,-4.811109 9.98594,-9.355754 15.44039,-13.094579 v 8.250242 a 4.7975228,4.7975228 0 0 0 4.79773,4.797725 4.7975228,4.7975228 0 0 0 4.79722,-4.797725 V -89.71299 c 5.17543,-2.279399 10.92177,-3.814348 17.56753,-4.314278 v 17.942879 a 4.7975228,4.7975228 0 0 0 4.79724,4.797724 4.7975228,4.7975228 0 0 0 4.79772,-4.797724 v -22.930518 a 4.7975228,4.7975228 0 0 0 -0.0888,-0.899939 4.7975228,4.7975228 0 0 0 -0.0139,-0.07091 4.7975228,4.7975228 0 0 0 -0.68822,-1.661554 4.7975228,4.7975228 0 0 0 -0.0421,-0.0625 4.7975228,4.7975228 0 0 0 -1.27083,-1.27084 4.7975228,4.7975228 0 0 0 -0.0605,-0.0406 4.7975228,4.7975228 0 0 0 -1.66006,-0.68773 4.7975228,4.7975228 0 0 0 -0.0754,-0.0154 4.7975228,4.7975228 0 0 0 -0.89796,-0.0883 c -11.18716,0 -20.447,2.57532 -28.49282,6.540592 a 4.7975228,4.7975228 0 0 0 -1.50387,0.735326 c -9.44257,4.947772 -17.1554,11.811425 -24.32829,18.661347 -7.15539,-6.833217 -14.84666,-13.681528 -24.257867,-18.626632 a 4.7975228,4.7975228 0 0 0 -1.672455,-0.817642 c -8.023305,-3.937881 -17.253121,-6.492991 -28.395145,-6.492991 -11.187625,0 -20.448259,2.57555 -28.494307,6.541091 a 4.7975228,4.7975228 0 0 0 -1.501397,0.733839 c -9.442881,4.947662 -17.155818,11.81142 -24.328823,18.6614 C 8.0262144,-84.708963 0.33537988,-91.556717 -9.0748593,-96.501504 a 4.7975228,4.7975228 0 0 0 -1.6734527,-0.818132 c -8.0232,-3.937884 -17.253019,-6.492994 -28.395043,-6.492994 z m 103.851228,9.785362 v 17.942879 a 4.7975228,4.7975228 0 0 0 4.797726,4.797724 4.7975228,4.7975228 0 0 0 4.797229,-4.797724 v -17.942879 c 6.645758,0.49993 12.392107,2.034879 17.567535,4.314278 v 13.630577 a 4.7975228,4.7975228 0 0 0 4.797226,4.797725 4.7975228,4.7975228 0 0 0 4.797731,-4.797725 v -8.250242 c 5.45444,3.738825 10.4181,8.28347 15.44039,13.094579 -5.02229,4.811206 -9.98595,9.356417 -15.44039,13.095568 v -8.249244 a 4.7975228,4.7975228 0 0 0 -4.797731,-4.797734 4.7975228,4.7975228 0 0 0 -4.797226,4.797734 v 13.630078 c -5.175428,2.279659 -10.921777,3.81478 -17.567535,4.314777 v -17.944855 a 4.7975228,4.7975228 0 0 0 -4.797229,-4.797734 4.7975228,4.7975228 0 0 0 -4.797726,4.797734 v 17.944855 c -6.645663,-0.499997 -12.391878,-2.035128 -17.567035,-4.314777 v -13.630078 a 4.7975228,4.7975228 0 0 0 -4.797726,-4.797734 4.7975228,4.7975228 0 0 0 -4.79723,4.797734 v 8.248755 c -5.453758,-3.739026 -10.417004,-8.284142 -15.438899,-13.095079 5.021895,-4.81084 9.985141,-9.355371 15.438899,-13.09408 v 8.249743 a 4.7975228,4.7975228 0 0 0 4.79723,4.797725 4.7975228,4.7975228 0 0 0 4.797726,-4.797725 V -89.71299 c 5.175157,-2.279399 10.921372,-3.814348 17.567035,-4.314278 z" />
    <path
       id="path5-0"
       style="fill:#ffffff;stroke:#808080;stroke-width:30.896;stroke-linecap:round;stroke-linejoin:round;stroke-dasharray:none;paint-order:stroke markers fill"
       d="m 124.24758,-286.985 c -6.15485,4.32024 -14.41156,7.87191 -25.056178,10.7334 -9.180029,2.46357 -19.526782,4.19771 -30.913498,5.00101 -9.526704,0.67168 -19.738142,0.70468 -30.15685,-0.41302 -3.130115,-0.3363 -6.308013,-0.75896 -9.464055,-1.34323 3.104303,0.82839 6.261677,1.46218 9.400587,1.97493 10.283274,1.68321 20.548343,1.90053 30.297173,1.30603 11.229978,-0.68327 21.647211,-2.4484 31.15398,-4.8597 7.847391,-1.9905 14.646001,-4.26843 20.790481,-6.91744 1.40303,-1.80149 2.72464,-3.62904 3.94836,-5.48198 z m -95.590581,13.97816 c 3.248899,0.54137 6.469494,0.90729 9.480417,1.18307 11.450965,1.04536 21.943232,0.68279 30.111234,-0.007 12.595601,-1.06508 22.581766,-3.18136 30.595671,-5.65206 -0.983358,-2.16581 -2.604748,-4.0706 -4.729302,-5.25092 -1.333443,-0.74081 -2.813419,-1.60983 -4.23743,-1.26984 -3.006847,0.7179 -6.045886,1.33069 -9.105565,1.86832 0.521008,1.8325 1.002282,3.95496 1.398758,6.53217 -0.837846,-2.46994 -2.018807,-4.46427 -3.35831,-6.19798 -3.637796,0.59986 -7.304541,1.0997 -10.987763,1.54355 -5.832307,0.69564 -11.71734,1.26684 -17.566043,1.77509 -3.092748,0.26877 -6.289417,0.29593 -9.527027,0.20726 0.221998,1.72237 0.296278,3.70453 0.106605,6.06806 -0.288835,-2.40645 -1.000145,-4.39051 -1.918396,-6.12756 l -0.125447,-0.005 c -7.151176,-0.33239 -14.018086,-0.86599 -20.741387,-1.0373 -1.767002,-0.045 -2.73705,0.31163 -3.11287,1.06259 -0.825359,1.64921 1.337343,4.91942 4.851276,7.92696 3.545194,3.03428 7.891722,5.36256 10.305492,6.19945 2.347974,0.81409 4.713766,1.48524 7.064696,2.03988 1.534207,0.37109 3.078905,0.69718 4.631124,0.98077 1.255206,-1.76703 2.343881,-4.11598 3.141628,-7.65772 -0.110836,3.09381 -0.637325,5.6575 -1.365537,7.95076 8.394633,1.35547 16.901314,1.49303 25.272352,0.81664 1.013201,-0.0806 2.02579,-0.17308 3.037503,-0.27717 0.685305,-2.35425 1.125942,-5.02574 1.143897,-8.34693 0.53224,3.41979 0.807326,6.00165 0.915813,8.1243 6.520747,-0.77162 12.968431,-2.00749 19.29404,-3.60672 4.544665,-1.14898 6.59928,-4.65802 6.674966,-8.32512 0.0086,-0.4162 -0.0077,-0.83532 -0.04855,-1.25397 l -0.18197,0.0412 c -10.137749,2.27748 -20.536517,3.92962 -31.294804,4.52105 -9.343685,0.51554 -19.628061,0.27994 -30.34279,-1.67246 -3.055674,-0.5554 -6.22599,-1.24797 -9.382242,-2.15343 z m 27.358838,32.51208 a 11.325362,18.479015 0 0 0 -11.325429,18.47938 11.325362,18.479015 0 0 0 11.325429,18.47887 11.325362,18.479015 0 0 0 11.324934,-18.47887 11.325362,18.479015 0 0 0 -11.324934,-18.47938 z m 26.981011,0 a 11.325362,18.479015 0 0 0 -11.325431,18.47938 11.325362,18.479015 0 0 0 11.325431,18.47887 11.325362,18.479015 0 0 0 11.324934,-18.47887 11.325362,18.479015 0 0 0 -11.324934,-18.47938 z m -45.892262,34.51031 a 11.325362,18.479015 0 0 0 -10.888596,13.45307 v -0.0565 c -0.925161,2.60534 -8.495651,2.48556 -12.237771,1.92335 -3.742121,-0.56221 -66.522581,-7.51789 -66.522581,-7.51789 -0.442393,-0.0471 -0.87151,-0.0713 -1.286202,-0.0739 -2.902843,-0.018 -5.090938,1.04579 -6.056659,3.04642 l -30.162304,63.8168 5.308439,-5.30893 30.910028,-55.23434 30.782102,4.14123 -15.227673,56.85325 -0.66839,2.49555 2.400351,-2.58282 16.482638,-56.74168 34.040251,3.05039 12.091003,1.20885 a 11.325362,18.479015 0 0 0 11.035364,14.48491 11.325362,18.479015 0 0 0 11.32543,-18.47887 11.325362,18.479015 0 0 0 -11.32543,-18.47888 z m -73.649256,74.95529 c 8.903313,-8.8507 24.25925,-19.57556 42.3043792,-12.67808 l 8.0221588,-40.5982 -33.445741,-2.57142 z m -1.731961,0.0873 14.42392,-56.23544 -29.281697,-3.62555 -31.60668,54.10084 c 14.426573,-5.03102 34.345526,-2.39532 46.464457,5.76015 z M 101.90761,-205.9844 a 11.325362,18.479015 0 0 0 -11.325437,18.47887 11.325362,18.479015 0 0 0 11.325437,18.47888 11.325362,18.479015 0 0 0 11.03536,-14.48491 l 12.091,-1.20885 34.04075,-3.05039 16.48264,56.74168 2.39985,2.58282 -0.66838,-2.49555 -15.22768,-56.85325 30.7826,-4.14124 30.91003,55.23434 5.30794,5.30893 -30.16181,-63.81679 c -0.96572,-2.00063 -3.15381,-3.06437 -6.05666,-3.04643 -0.41469,0.003 -0.8438,0.0268 -1.2862,0.0739 0,0 -62.78097,6.95568 -66.52308,7.5179 -3.74213,0.56221 -11.31262,0.68197 -12.23777,-1.92336 v 0.01 a 11.325362,18.479015 0 0 0 -10.88859,-13.40646 z m 121.84617,69.2824 -31.60718,-54.10084 -29.2817,3.62555 14.42393,56.23544 c 12.11893,-8.15547 32.03837,-10.79117 46.46495,-5.76015 z m -48.19642,5.67288 -16.88129,-55.84769 -33.44525,2.57141 8.02216,40.59821 c 18.04513,-6.89748 33.40107,3.82737 42.30438,12.67807 z m -106.051266,-69.5383 a 16.98834,19.214502 0 0 0 -8.494196,2.57389 16.98834,19.214502 0 0 0 -2.425638,1.92136 16.98834,19.214502 0 0 0 -2.093923,2.36813 16.98834,19.214502 0 0 0 -1.69874,2.74396 16.98834,19.214502 0 0 0 -1.157781,2.80892 16.98834,19.214502 0 0 0 -0.465095,1.79493 16.98834,19.214502 0 0 0 -0.276678,1.16721 16.98834,19.214502 0 0 0 -0.245936,2.15441 16.98834,19.214502 0 0 0 -0.06793,0.87614 16.98834,19.214502 0 0 0 0.05751,2.35375 16.98834,19.214502 0 0 0 0.0099,0.41253 l -0.04909,-0.0863 c 0.34777,5.77161 -2.018321,10.40769 -7.098908,13.90776 l 0.0099,4.9e-4 a 16.98834,19.214502 0 0 0 -0.780945,0.48543 16.98834,19.214502 0 0 0 -1.095801,0.68178 16.98834,19.214502 0 0 0 -1.332316,1.05514 16.98834,19.214502 0 0 0 -0.927712,0.81119 16.98834,19.214502 0 0 0 -1.287691,1.45627 16.98834,19.214502 0 0 0 -0.67186,0.80376 16.98834,19.214502 0 0 0 -1.607506,2.5967 16.98834,19.214502 0 0 0 -2.276391,9.60735 16.98834,19.214502 0 0 0 2.276391,9.60735 16.98834,19.214502 0 0 0 1.69874,2.74347 16.98834,19.214502 0 0 0 2.093427,2.36813 16.98834,19.214502 0 0 0 2.425639,1.92137 16.98834,19.214502 0 0 0 8.494195,2.57389 16.98834,19.214502 0 0 0 2.729587,-0.26974 16.98834,19.214502 0 0 0 1.608994,-0.44228 16.98834,19.214502 0 0 0 1.029854,-0.31238 16.98834,19.214502 0 0 0 1.774108,-0.83697 16.98834,19.214502 0 0 0 0.70409,-0.37139 16.98834,19.214502 0 0 0 1.772123,-1.23216 16.98834,19.214502 0 0 0 0.311882,-0.21667 l -0.04115,0.0908 c 4.245373,-3.22645 8.97805,-3.22645 14.198313,0 l -0.005,-0.01 a 16.98834,19.214502 0 0 0 0.764582,0.5236 16.98834,19.214502 0 0 0 1.066547,0.73037 16.98834,19.214502 0 0 0 1.473134,0.77748 16.98834,19.214502 0 0 0 1.089355,0.50476 16.98834,19.214502 0 0 0 1.74584,0.52905 16.98834,19.214502 0 0 0 0.964407,0.25933 16.98834,19.214502 0 0 0 2.790076,0.27618 16.98834,19.214502 0 0 0 8.494205,-2.57439 16.98834,19.214502 0 0 0 2.358702,-1.86782 16.98834,19.214502 0 0 0 0.105612,-0.0972 16.98834,19.214502 0 0 0 1.987815,-2.24813 16.98834,19.214502 0 0 0 0.117511,-0.15768 16.98834,19.214502 0 0 0 1.605034,-2.59223 16.98834,19.214502 0 0 0 0.0838,-0.1681 16.98834,19.214502 0 0 0 1.19794,-2.90461 16.98834,19.214502 0 0 0 0.0277,-0.0937 16.98834,19.214502 0 0 0 0.73782,-3.11484 16.98834,19.214502 0 0 0 0.0169,-0.0937 16.98834,19.214502 0 0 0 0.24692,-3.19121 16.98834,19.214502 0 0 0 0.009,-0.11107 16.98834,19.214502 0 0 0 -0.007,-0.0872 16.98834,19.214502 0 0 0 -0.24297,-3.14609 16.98834,19.214502 0 0 0 -0.0337,-0.21122 16.98834,19.214502 0 0 0 -0.72591,-3.06527 16.98834,19.214502 0 0 0 -0.0506,-0.14876 16.98834,19.214502 0 0 0 -1.2158,-2.94825 16.98834,19.214502 0 0 0 -1.572305,-2.53968 16.98834,19.214502 0 0 0 -1.137943,-1.34818 16.98834,19.214502 0 0 0 -0.759631,-0.8588 16.98834,19.214502 0 0 0 -1.520728,-1.31446 16.98834,19.214502 0 0 0 -0.643597,-0.50972 16.98834,19.214502 0 0 0 -1.829641,-1.11911 16.98834,19.214502 0 0 0 -0.320312,-0.19635 l 0.09019,-0.006 c -4.593147,-2.54517 -6.959736,-7.18074 -7.099411,-13.90726 l -0.0048,0.01 a 16.98834,19.214502 0 0 0 0.0048,-0.0695 16.98834,19.214502 0 0 0 0.0307,-0.4051 16.98834,19.214502 0 0 0 0.03771,-0.82011 16.98834,19.214502 0 0 0 0.0077,-0.33916 16.98834,19.214502 0 0 0 -0.0086,-0.89002 16.98834,19.214502 0 0 0 -0.01094,-0.31387 16.98834,19.214502 0 0 0 -0.05997,-0.9168 16.98834,19.214502 0 0 0 -0.02581,-0.27768 16.98834,19.214502 0 0 0 -0.113547,-0.9401 16.98834,19.214502 0 0 0 -0.03723,-0.24346 16.98834,19.214502 0 0 0 -0.169573,-0.95399 16.98834,19.214502 0 0 0 -0.04807,-0.22858 16.98834,19.214502 0 0 0 -0.229072,-0.96689 16.98834,19.214502 0 0 0 -0.04711,-0.17254 16.98834,19.214502 0 0 0 -0.297005,-0.99763 16.98834,19.214502 0 0 0 -0.03867,-0.11504 16.98834,19.214502 0 0 0 -0.364937,-1.01349 16.98834,19.214502 0 0 0 -0.03771,-0.0932 16.98834,19.214502 0 0 0 -0.436834,-1.02192 16.98834,19.214502 0 0 0 -0.0099,-0.0208 16.98834,19.214502 0 0 0 -0.336172,-0.69169 16.98834,19.214502 0 0 0 -0.04366,-0.0704 16.98834,19.214502 0 0 0 -1.602056,-2.58827 16.98834,19.214502 0 0 0 -0.123459,-0.16561 16.98834,19.214502 0 0 0 -1.983851,-2.24417 16.98834,19.214502 0 0 0 -0.107597,-0.0977 16.98834,19.214502 0 0 0 -2.357708,-1.86733 16.98834,19.214502 0 0 0 -8.4937,-2.57389 z m -108.649449,96.75479 a 4.7975228,4.7975228 0 0 0 -2.3111,0.6193 4.7975228,4.7975228 0 0 0 -0.173048,0.10859 4.7975228,4.7975228 0 0 0 -1.585688,1.58569 4.7975228,4.7975228 0 0 0 -0.109085,0.17354 4.7975228,4.7975228 0 0 0 -0.618805,2.310605 v 22.930519 a 4.7975228,4.7975228 0 0 0 4.797726,4.797724 4.7975228,4.7975228 0 0 0 4.797229,-4.797724 v -17.942879 c 6.645914,0.49994 12.392223,2.035253 17.567532,4.314776 v 13.630079 a 4.7975228,4.7975228 0 0 0 4.79723,4.797725 4.7975228,4.7975228 0 0 0 4.7977257,-4.797725 v -8.249743 c 5.4537888,3.738729 10.4169739,8.283211 15.4388989,13.09408 -5.021925,4.810966 -9.9851101,9.356033 -15.4388989,13.095079 v -8.248756 a 4.7975228,4.7975228 0 0 0 -4.7977257,-4.797733 4.7975228,4.7975228 0 0 0 -4.79723,4.797733 v 13.62958 c -5.175309,2.279783 -10.921618,3.815259 -17.567532,4.315276 V -66.39175 a 4.7975228,4.7975228 0 0 0 -4.797229,-4.797733 4.7975228,4.7975228 0 0 0 -4.797726,4.797733 v 22.932495 a 4.7975228,4.7975228 0 0 0 0.618805,2.310602 4.7975228,4.7975228 0 0 0 0.109085,0.173536 4.7975228,4.7975228 0 0 0 1.585688,1.585697 4.7975228,4.7975228 0 0 0 0.173048,0.108587 4.7975228,4.7975228 0 0 0 2.3111,0.619303 c 11.185362,0 20.443932,-2.575061 28.488853,-6.539609 a 4.7975228,4.7975228 0 0 0 1.5103214,-0.738301 c 9.44110123,-4.947925 17.1532592,-11.811165 24.3253026,-18.660358 7.172261,6.849395 14.884299,13.712923 24.325798,18.660857 a 4.7975228,4.7975228 0 0 0 1.508338,0.737312 c 8.04515,3.964827 17.304517,6.540099 28.490341,6.540099 11.185361,0 20.443924,-2.575061 28.48886,-6.539609 a 4.7975228,4.7975228 0 0 0 1.510317,-0.738301 c 9.441624,-4.948193 17.153914,-11.811779 24.326294,-18.661346 7.17229,6.849481 14.88429,13.71321 24.3258,18.661346 a 4.7975228,4.7975228 0 0 0 1.51033,0.738301 c 8.04491,3.964548 17.30348,6.539609 28.48885,6.539609 a 4.7975228,4.7975228 0 0 0 2.3111,-0.619303 4.7975228,4.7975228 0 0 0 0.17304,-0.108587 4.7975228,4.7975228 0 0 0 1.58569,-1.585697 4.7975228,4.7975228 0 0 0 0.10909,-0.173536 4.7975228,4.7975228 0 0 0 0.6188,-2.310602 V -66.39175 a 4.7975228,4.7975228 0 0 0 -4.79772,-4.797733 4.7975228,4.7975228 0 0 0 -4.79724,4.797733 v 17.944856 c -6.64576,-0.499998 -12.3921,-2.035119 -17.56753,-4.314777 V -66.39175 a 4.7975228,4.7975228 0 0 0 -4.79722,-4.797733 4.7975228,4.7975228 0 0 0 -4.79773,4.797733 v 8.249245 c -5.45445,-3.739151 -10.41812,-8.284362 -15.44039,-13.095568 5.02227,-4.811109 9.98594,-9.355754 15.44039,-13.094579 v 8.250242 a 4.7975228,4.7975228 0 0 0 4.79773,4.797725 4.7975228,4.7975228 0 0 0 4.79722,-4.797725 v -13.630578 c 5.17543,-2.279399 10.92177,-3.814347 17.56753,-4.314277 v 17.942879 a 4.7975228,4.7975228 0 0 0 4.79724,4.797724 4.7975228,4.7975228 0 0 0 4.79772,-4.797724 v -22.930519 a 4.7975228,4.7975228 0 0 0 -0.0888,-0.899938 4.7975228,4.7975228 0 0 0 -0.0139,-0.07091 4.7975228,4.7975228 0 0 0 -0.68822,-1.661557 4.7975228,4.7975228 0 0 0 -0.0421,-0.0625 4.7975228,4.7975228 0 0 0 -1.27083,-1.27083 4.7975228,4.7975228 0 0 0 -0.0605,-0.0407 4.7975228,4.7975228 0 0 0 -1.66006,-0.68772 4.7975228,4.7975228 0 0 0 -0.0754,-0.0154 4.7975228,4.7975228 0 0 0 -0.89796,-0.0883 c -11.18716,0 -20.447,2.57532 -28.49282,6.540595 a 4.7975228,4.7975228 0 0 0 -1.50387,0.735326 c -9.44257,4.947772 -17.1554,11.811425 -24.32829,18.661347 -7.15539,-6.833217 -14.84666,-13.681528 -24.257867,-18.626632 a 4.7975228,4.7975228 0 0 0 -1.672455,-0.817642 c -8.023308,-3.937884 -17.253121,-6.492994 -28.395145,-6.492994 -11.187625,0 -20.448259,2.57555 -28.494307,6.541094 a 4.7975228,4.7975228 0 0 0 -1.501397,0.733839 c -9.442881,4.947741 -17.155818,11.8115 -24.328823,18.66148 C 8.0262144,-84.70896 0.3353795,-91.556714 -9.0748593,-96.501502 a 4.7975228,4.7975228 0 0 0 -1.6734527,-0.818131 c -8.0232,-3.937887 -17.253019,-6.492997 -28.395043,-6.492997 z m 103.851228,9.785365 v 17.942879 a 4.7975228,4.7975228 0 0 0 4.797726,4.797724 4.7975228,4.7975228 0 0 0 4.797229,-4.797724 v -17.942879 c 6.645758,0.49993 12.392104,2.034878 17.567535,4.314277 v 13.630578 a 4.7975228,4.7975228 0 0 0 4.797226,4.797725 4.7975228,4.7975228 0 0 0 4.797731,-4.797725 v -8.250242 c 5.45444,3.738825 10.4181,8.28347 15.44039,13.094579 -5.02229,4.811206 -9.98595,9.356417 -15.44039,13.095568 v -8.249245 a 4.7975228,4.7975228 0 0 0 -4.797731,-4.797733 4.7975228,4.7975228 0 0 0 -4.797226,4.797733 v 13.630079 c -5.175431,2.279658 -10.921777,3.814779 -17.567535,4.314777 V -66.39175 a 4.7975228,4.7975228 0 0 0 -4.797229,-4.797733 4.7975228,4.7975228 0 0 0 -4.797726,4.797733 v 17.944856 C 58.06221,-48.946892 52.315995,-50.482022 47.140838,-52.761671 V -66.39175 a 4.7975228,4.7975228 0 0 0 -4.797726,-4.797733 4.7975228,4.7975228 0 0 0 -4.79723,4.797733 v 8.248756 c -5.453758,-3.739027 -10.417004,-8.284142 -15.438899,-13.095079 5.021895,-4.81084 9.985141,-9.355371 15.438899,-13.09408 v 8.249743 a 4.7975228,4.7975228 0 0 0 4.79723,4.797725 4.7975228,4.7975228 0 0 0 4.797726,-4.797725 v -13.630578 c 5.175157,-2.279399 10.921372,-3.814347 17.567035,-4.314277 z" />
    <path
       style="fill:none;stroke:#000000;stroke-width:1;stroke-dasharray:none"
       d="m -49.560736,305.74601 66.141717,66.14171"
       id="path12" />
    <path
       style="fill:none;stroke:#000000;stroke-width:1;stroke-dasharray:none"
       d="M 82.722698,305.74601 16.580981,371.88772"
       id="path12-3" />
    <path
       style="fill:none;stroke:#000000;stroke-width:1;stroke-dasharray:none"
       d="m 82.722698,305.74601 66.141722,66.14171"
       id="path12-2" />
    <path
       style="fill:none;stroke:#000000;stroke-width:1;stroke-dasharray:none"
       d="m 215.00614,305.74601 -66.14172,66.14171"
       id="path12-3-9" />
    <path
       style="fill:none;stroke:#000000;stroke-width:1;stroke-dasharray:none"
       d="m 215.00614,305.74601 66.14172,66.14171"
       id="path12-9" />
    <path
       style="fill:none;stroke:#000000;stroke-width:1;stroke-dasharray:none"
       d="m 347.28958,305.74601 -66.14172,66.14171"
       id="path12-3-8" />
    <path
       style="fill:none;stroke:#000000;stroke-width:1;stroke-dasharray:none"
       d="m -181.84417,305.74601 66.14172,66.14171"
       id="path12-6" />
    <path
       style="fill:none;stroke:#000000;stroke-width:1;stroke-dasharray:none"
       d="m -49.560736,305.74601 -66.141714,66.14171"
       id="path12-3-3" />
  </g>
</svg>
