<?xml version="1.0" encoding="UTF-8" standalone="no"?>
<!-- Created with Inkscape (http://www.inkscape.org/) -->

<svg
   width="210mm"
   height="297mm"
   viewBox="0 0 210 297"
   version="1.1"
   id="svg1"
   xml:space="preserve"
   inkscape:version="1.4 (86a8ad7, 2024-10-11)"
   sodipodi:docname="logo.svg"
   xmlns:inkscape="http://www.inkscape.org/namespaces/inkscape"
   xmlns:sodipodi="http://sodipodi.sourceforge.net/DTD/sodipodi-0.dtd"
   xmlns="http://www.w3.org/2000/svg"
   xmlns:svg="http://www.w3.org/2000/svg"><sodipodi:namedview
     id="namedview1"
     pagecolor="#505050"
     bordercolor="#ffffff"
     borderopacity="1"
     inkscape:showpageshadow="0"
     inkscape:pageopacity="0"
     inkscape:pagecheckerboard="1"
     inkscape:deskcolor="#505050"
     inkscape:document-units="mm"
     inkscape:zoom="2.0535659"
     inkscape:cx="91.304595"
     inkscape:cy="416.59243"
     inkscape:window-width="1920"
     inkscape:window-height="1017"
     inkscape:window-x="1592"
     inkscape:window-y="-8"
     inkscape:window-maximized="1"
     inkscape:current-layer="layer1" /><defs
     id="defs1"><inkscape:path-effect
       effect="bend_path"
       id="path-effect9"
       is_visible="true"
       lpeversion="1"
       bendpath="M 14.758896,9.6661383 C 40.790399,20.102143 99.761785,17.064498 131.4831,3.8617663"
       prop_scale="1"
       scale_y_rel="false"
       vertical="false"
       hide_knot="false" /></defs><g
     inkscape:label="Layer 1"
     inkscape:groupmode="layer"
     id="layer1"><path
       id="path5"
       style="fill:#ffffff;stroke:none;stroke-width:0.128394;stroke-dasharray:none"
       d="m 19.17281,100.35895 c -0.836988,-10e-6 -1.515169,1.10704 -1.515153,2.47271 7e-6,1.36564 0.678181,2.47273 1.515153,2.47272 0.836945,-5e-5 1.515663,-1.10712 1.51567,-2.47272 1.6e-5,-1.36563 -0.678709,-2.47266 -1.51567,-2.47271 z m 3.610632,0 c -0.836988,-10e-6 -1.515685,1.10704 -1.515669,2.47271 6e-6,1.36564 0.678697,2.47273 1.515669,2.47272 0.836946,-5e-5 1.515147,-1.10712 1.515153,-2.47272 1.6e-5,-1.36563 -0.678191,-2.47266 -1.515153,-2.47271 z m -6.141227,4.6178 c -0.677742,9.4e-4 -1.272425,0.73626 -1.456758,1.80041 v -0.008 c -0.123798,0.34863 -0.01964,1.2144 -0.01964,1.2144 0.153383,1.13051 0.766755,1.9361 1.476396,1.93838 0.836972,1e-5 1.515663,-1.10708 1.51567,-2.47272 -7e-6,-1.36565 -0.678698,-2.47272 -1.51567,-2.47272 z m 8.671822,0 c -0.05231,0 -0.104083,0.004 -0.155029,0.0129 -0.04686,0.008 -0.09299,0.0195 -0.138493,0.0341 -0.0076,0.002 -0.01515,0.005 -0.02274,0.008 -0.04182,0.0145 -0.08304,0.0317 -0.123506,0.0517 -0.0071,0.004 -0.01413,0.007 -0.02119,0.0109 -0.04385,0.0228 -0.08718,0.048 -0.129191,0.077 -0.04533,0.0313 -0.08934,0.0663 -0.132291,0.10438 -0.04004,0.0355 -0.07903,0.0742 -0.116789,0.11524 -0.0027,0.003 -0.0056,0.005 -0.0083,0.008 -8.5e-5,9e-5 8.4e-5,4.2e-4 0,5.2e-4 -0.0026,0.003 -0.0051,0.006 -0.0078,0.009 -0.03745,0.0419 -0.07411,0.0858 -0.109037,0.13281 -0.03469,0.0467 -0.06774,0.0963 -0.09974,0.14779 -0.0025,0.004 -0.0053,0.007 -0.0078,0.0114 -7.7e-5,1.3e-4 7.7e-5,3.9e-4 0,5.2e-4 -0.002,0.003 -0.0037,0.007 -0.0057,0.0103 -0.03009,0.0496 -0.05886,0.10139 -0.0863,0.15503 -0.0018,0.003 -0.0039,0.006 -0.0057,0.01 -7e-5,1.4e-4 6.9e-5,3.8e-4 0,5.2e-4 -0.0017,0.003 -0.0035,0.007 -0.0052,0.0103 -0.02898,0.0579 -0.05645,0.11772 -0.08217,0.17984 -0.02594,0.0626 -0.04994,0.12774 -0.07235,0.1943 -0.0011,0.003 -0.0025,0.006 -0.0036,0.009 -5.2e-5,1.6e-4 5.2e-5,3.6e-4 0,5.2e-4 -7.79e-4,0.002 -0.0013,0.005 -0.0021,0.007 -0.04499,0.13618 -0.08276,0.27994 -0.111621,0.42995 -3.69e-4,0.002 -6.68e-4,0.004 -0.001,0.006 -3.1e-5,1.6e-4 3.2e-5,3.5e-4 0,5.1e-4 -2.56e-4,0.001 -2.62e-4,0.003 -5.16e-4,0.004 -0.01443,0.0761 -0.02677,0.15346 -0.03669,0.23254 -0.01009,0.0805 -0.01808,0.16234 -0.02325,0.24546 -0.0052,0.0831 -0.0078,0.16735 -0.0078,0.2527 1e-6,0.0771 0.0025,0.15363 0.0067,0.22893 0.0038,0.0685 0.0099,0.13583 0.01705,0.20257 0.0014,0.0126 0.0026,0.0252 0.0041,0.0377 0.0078,0.0662 0.01695,0.13114 0.02791,0.19534 5.33e-4,0.003 0.001,0.006 0.0015,0.009 0.01197,0.0691 0.02588,0.13715 0.04134,0.20361 0.187334,0.80514 0.624661,1.40857 1.157553,1.55856 5.2e-4,1.5e-4 0.001,3.7e-4 0.0016,5.1e-4 3.19e-4,9e-5 7.14e-4,-8e-5 0.001,0 0.04082,0.0114 0.08216,0.0204 0.124024,0.0264 7.04e-4,1e-4 0.0014,4.2e-4 0.0021,5.2e-4 0.001,1.4e-4 0.0021,-1.4e-4 0.0031,0 0.04211,0.006 0.08463,0.009 0.127641,0.009 0.133058,-3.8e-4 0.262633,-0.0289 0.38654,-0.0827 0.0413,-0.0179 0.08203,-0.0387 0.121956,-0.062 0.03993,-0.0234 0.07893,-0.0494 0.117306,-0.078 0.03838,-0.0286 0.076,-0.0594 0.112654,-0.093 0.03665,-0.0336 0.07223,-0.0697 0.106971,-0.10801 0.03475,-0.0384 0.06862,-0.0791 0.101285,-0.12196 0.02974,-0.039 0.05843,-0.0804 0.0863,-0.12298 0.0027,-0.004 0.0056,-0.008 0.0083,-0.0119 7.9e-5,-1.2e-4 -7.8e-5,-4e-4 0,-5.2e-4 0.0021,-0.003 0.0041,-0.007 0.0062,-0.01 0.02816,-0.0442 0.0556,-0.0897 0.08165,-0.13746 0.02796,-0.0512 0.05424,-0.10463 0.07958,-0.15968 0.05068,-0.11009 0.09624,-0.22741 0.135392,-0.3514 0.01957,-0.062 0.03732,-0.12557 0.05374,-0.19068 0.01592,-0.0631 0.03061,-0.12793 0.04341,-0.19379 3.69e-4,-0.002 6.67e-4,-0.004 0.001,-0.006 3.2e-5,-1.7e-4 -3.1e-5,-3.5e-4 0,-5.2e-4 3.31e-4,-0.002 7.06e-4,-0.003 0.001,-0.005 0.01268,-0.0663 0.02373,-0.13369 0.03307,-0.20257 0,0 0.0067,-0.0543 0.01447,-0.14107 6.7e-5,-7.4e-4 -6.6e-5,-0.002 0,-0.003 0.01162,-0.12901 0.02596,-0.3281 0.02636,-0.52865 3e-6,-0.001 -1e-6,-0.003 0,-0.004 v -5.2e-4 c 5.8e-5,-0.0674 -0.0014,-0.1352 -0.0052,-0.19999 -2.1e-5,-3.6e-4 2.1e-5,-6.7e-4 0,-0.001 -0.0076,-0.12977 -0.02454,-0.24882 -0.05529,-0.3359 v -0.001 c -0.01156,-0.0659 -0.02464,-0.1305 -0.03927,-0.19379 -8.6e-5,-3.7e-4 -4.31e-4,-6.6e-4 -5.17e-4,-0.001 -0.02945,-0.1272 -0.06501,-0.24897 -0.105937,-0.36432 -0.0125,-0.0352 -0.0263,-0.0688 -0.03979,-0.10284 -0.0086,-0.0217 -0.01633,-0.0444 -0.02532,-0.0656 -0.02302,-0.0542 -0.04739,-0.10681 -0.07286,-0.15761 -1.06e-4,-2.1e-4 -4.1e-4,-3e-4 -5.17e-4,-5.2e-4 -0.01161,-0.0231 -0.02407,-0.0448 -0.03617,-0.0672 -0.01454,-0.0269 -0.02871,-0.0548 -0.04393,-0.0806 -0.002,-0.003 -0.0042,-0.006 -0.0062,-0.01 -0.026,-0.0436 -0.05278,-0.0858 -0.08062,-0.12609 -0.06012,-0.087 -0.124447,-0.16623 -0.192237,-0.23668 -0.03389,-0.0352 -0.06881,-0.0679 -0.104386,-0.0987 -0.03557,-0.0308 -0.07195,-0.0596 -0.109037,-0.0858 -0.03709,-0.0262 -0.07472,-0.05 -0.113172,-0.0713 -0.03845,-0.0213 -0.07766,-0.04 -0.117305,-0.0563 -0.03965,-0.0163 -0.07972,-0.0298 -0.120406,-0.0408 -0.04069,-0.011 -0.08194,-0.0197 -0.123507,-0.0253 -0.04157,-0.006 -0.08328,-0.008 -0.125574,-0.008 z m -4.335652,0.72502 c -0.399035,-2e-5 -0.7913,0.11904 -1.136882,0.34469 -0.114604,0.0748 -0.223157,0.1606 -0.324528,0.25683 -0.101373,0.0962 -0.195022,0.20212 -0.280086,0.31677 -0.08508,0.11468 -0.161201,0.23778 -0.227376,0.36742 -0.06051,0.12037 -0.11242,0.24588 -0.15503,0.37569 -0.02418,0.0789 -0.04473,0.15914 -0.06201,0.2403 -0.01378,0.0516 -0.02632,0.10357 -0.03721,0.15606 -0.01577,0.0953 -0.02692,0.19163 -0.03307,0.28835 -0.0038,0.039 -0.0065,0.0782 -0.0088,0.11731 -0.0031,0.10507 -4.74e-4,0.21052 0.0078,0.31523 2.68e-4,0.0184 3.63e-4,0.0364 0.001,0.0548 l -0.0067,-0.0114 c 0.04654,0.77231 -0.269968,1.39251 -0.949813,1.86087 h 0.0015 c -0.03533,0.0206 -0.07006,0.0424 -0.104386,0.0651 -0.04985,0.0284 -0.09889,0.0591 -0.146761,0.0915 -0.06139,0.0438 -0.120885,0.0908 -0.178284,0.14108 -0.04247,0.0346 -0.08376,0.0708 -0.124024,0.10852 -0.06048,0.0614 -0.118284,0.12643 -0.172599,0.19482 -0.03087,0.0349 -0.06087,0.0706 -0.08992,0.10749 -0.08004,0.10892 -0.151857,0.22545 -0.214974,0.34778 -0.199539,0.39086 -0.304361,0.83385 -0.304374,1.28519 1.3e-5,0.45134 0.104835,0.89485 0.304374,1.28571 0.06618,0.12962 0.142303,0.25277 0.227377,0.36742 0.08504,0.11465 0.178735,0.22057 0.280086,0.31678 0.101371,0.0962 0.209924,0.18198 0.324528,0.25683 0.345582,0.22565 0.737845,0.34469 1.136881,0.34468 0.122412,-9.4e-4 0.244143,-0.013 0.364836,-0.0362 0.07258,-0.0157 0.144616,-0.0357 0.215491,-0.0594 0.04631,-0.0123 0.09244,-0.0263 0.137976,-0.0419 0.08094,-0.0322 0.159994,-0.0692 0.237195,-0.11162 0.03174,-0.0157 0.06299,-0.0322 0.09405,-0.0496 0.08195,-0.0494 0.161202,-0.10446 0.237194,-0.16485 0.014,-0.009 0.02804,-0.0196 0.04186,-0.0294 l -0.0057,0.0124 c 0.568083,-0.43174 1.201607,-0.43174 1.900142,0 l -5.16e-4,-0.001 c 0.03355,0.0244 0.06768,0.0479 0.102319,0.0703 0.0465,0.0345 0.09401,0.0671 0.142627,0.0977 0.0642,0.0382 0.129749,0.0727 0.196887,0.10387 0.04789,0.0244 0.09646,0.0471 0.145728,0.0677 0.07671,0.0283 0.154651,0.0519 0.233577,0.0708 0.04271,0.013 0.08588,0.0245 0.129191,0.0346 0.123338,0.0239 0.248485,0.036 0.373621,0.0367 0.399042,-10e-6 0.790787,-0.11849 1.136365,-0.34416 0.111271,-0.0731 0.216978,-0.15685 0.315743,-0.25012 0.0047,-0.004 0.0093,-0.009 0.01395,-0.0129 0.09586,-0.0918 0.18497,-0.19234 0.266134,-0.30075 0.0053,-0.007 0.01029,-0.0141 0.0155,-0.0212 0.0799,-0.10875 0.151937,-0.22465 0.214974,-0.34675 0.0038,-0.007 0.0077,-0.0152 0.01137,-0.0227 0.06291,-0.12428 0.116426,-0.25422 0.160196,-0.3886 0.0012,-0.004 0.0024,-0.008 0.0036,-0.0124 0.04318,-0.13556 0.07618,-0.27521 0.0987,-0.41703 8.03e-4,-0.004 0.0013,-0.008 0.0021,-0.0124 0.0215,-0.14105 0.03259,-0.28372 0.03307,-0.42685 4.01e-4,-0.005 0.0012,-0.0101 0.0016,-0.015 -2.68e-4,-0.004 -7.66e-4,-0.008 -0.001,-0.0119 -6.7e-4,-0.1411 -0.01153,-0.28156 -0.03256,-0.42064 -0.0015,-0.009 -0.0031,-0.019 -0.0046,-0.0284 -0.02232,-0.13952 -0.05483,-0.27685 -0.09715,-0.41031 -0.0022,-0.007 -0.0044,-0.013 -0.0067,-0.0196 -0.04427,-0.13647 -0.09879,-0.26875 -0.162781,-0.39481 -0.06192,-0.11951 -0.132213,-0.23335 -0.210323,-0.34003 -0.04815,-0.0629 -0.09862,-0.12303 -0.151929,-0.18035 -0.0328,-0.0395 -0.06686,-0.0776 -0.101802,-0.11472 -0.06486,-0.0629 -0.132906,-0.12144 -0.203605,-0.1757 -0.02824,-0.0235 -0.05713,-0.0462 -0.0863,-0.0682 -0.07054,-0.0497 -0.143676,-0.0937 -0.218591,-0.13436 -0.180025,1.18539 -0.484668,2.46472 -1.070219,2.87993 -0.45997,0.33012 -0.896076,0.55091 -1.308448,0.66249 -0.407653,0.1083 -0.791895,0.13043 -1.151867,0.0656 -0.355972,-0.0641 -0.6726,-0.20804 -0.95033,-0.4315 -0.277735,-0.22343 -0.504011,-0.50545 -0.677995,-0.84646 -0.173259,-0.34502 -0.286944,-0.74134 -0.342614,-1.18907 -0.05167,-0.447 -0.0317,-0.92669 0.06046,-1.43867 l 0.01809,-0.10181 c 0.747459,0.0686 1.449273,0.0953 2.104264,0.0811 0.65971,-0.0175 1.24209,-0.0903 1.748214,-0.21808 0.295007,-0.0744 0.557233,-0.17131 0.788582,-0.28939 -0.139519,-0.29887 -0.216037,-0.65634 -0.224792,-1.07797 l -0.001,0.001 c 2.68e-4,-0.003 7.66e-4,-0.006 0.001,-0.009 0.0015,-0.0181 0.0029,-0.0362 0.0041,-0.0543 0.0024,-0.0365 0.0037,-0.0729 0.0047,-0.10956 5.35e-4,-0.0151 0.0013,-0.0303 0.0016,-0.0455 4.01e-4,-0.0397 -3.4e-4,-0.0792 -0.0016,-0.11886 -4.02e-4,-0.014 -0.001,-0.0284 -0.0016,-0.0424 -0.0018,-0.041 -0.0042,-0.0817 -0.0078,-0.12248 -0.0011,-0.0124 -0.0024,-0.0248 -0.0036,-0.0372 -0.0041,-0.0421 -0.009,-0.0838 -0.01499,-0.12558 -0.0016,-0.0109 -0.0034,-0.0216 -0.0052,-0.0326 -0.0066,-0.0428 -0.01422,-0.0853 -0.02274,-0.12765 -0.0021,-0.0102 -0.004,-0.0208 -0.0062,-0.031 -0.0092,-0.0434 -0.0198,-0.0864 -0.03101,-0.12919 -0.0021,-0.008 -0.0041,-0.0156 -0.0062,-0.0233 -0.01216,-0.0449 -0.02547,-0.0892 -0.03979,-0.13332 -0.0017,-0.005 -0.0034,-0.0104 -0.0052,-0.0155 -0.01514,-0.0457 -0.03116,-0.0907 -0.04858,-0.1354 -0.0017,-0.004 -0.0035,-0.008 -0.0052,-0.0129 -0.01829,-0.0462 -0.03772,-0.0915 -0.05839,-0.13642 l -0.0016,-0.003 c -0.01443,-0.0312 -0.02941,-0.062 -0.04496,-0.0925 -0.0019,-0.003 -0.0037,-0.006 -0.0057,-0.009 -0.06293,-0.12191 -0.134713,-0.23764 -0.214457,-0.34623 -0.0055,-0.007 -0.01099,-0.0148 -0.01654,-0.0222 -0.08102,-0.10821 -0.16996,-0.20859 -0.265617,-0.30024 -0.0048,-0.004 -0.0091,-0.009 -0.01395,-0.0129 -0.09872,-0.0932 -0.204519,-0.17707 -0.315743,-0.25011 -0.345563,-0.22564 -0.737351,-0.34418 -1.136364,-0.34417 z m 0.560689,1.01648 c 0.122149,-0.002 0.247765,0.009 0.377755,0.0326 0.175985,0.0317 0.334127,0.0953 0.473872,0.19068 0.139747,0.0954 0.252607,0.21249 0.338998,0.35192 0.09111,0.13614 0.152256,0.28964 0.183451,0.46043 0.0352,0.17151 0.03622,0.34933 0.0031,0.53331 -0.04968,0.27597 -0.17592,0.50755 -0.378788,0.69401 -0.202149,0.18247 -0.472813,0.32343 -0.812871,0.42323 -0.335336,0.0965 -0.738229,0.154 -1.208195,0.1726 -0.465239,0.0153 -0.985461,-0.008 -1.560628,-0.0703 0.06648,-0.23166 0.149993,-0.46645 0.250631,-0.70435 0.100641,-0.2379 0.216276,-0.46716 0.346749,-0.6873 0.134471,-0.21941 0.284154,-0.42173 0.449585,-0.60668 0.166151,-0.18894 0.347053,-0.34606 0.543119,-0.4718 0.196788,-0.12975 0.409655,-0.22102 0.638204,-0.27492 0.114271,-0.0269 0.232867,-0.0416 0.355017,-0.0434 z" /><path
       id="path14"
       style="font-size:24.9691px;font-family:Gabriola;-inkscape-font-specification:Gabriola;stroke-width:2.08076"
       d="m 24.58198,123.333 c -0.455166,0 -0.882272,0.0712 -1.280542,0.21342 -0.394207,0.14224 -0.757644,0.33921 -1.09089,0.59118 -0.329182,0.2479 -0.624089,0.54229 -0.884183,0.88366 -0.260096,0.33731 -0.481164,0.7034 -0.664042,1.09761 -0.178816,0.39421 -0.317427,0.80849 -0.414962,1.24334 -0.09347,0.43484 -0.140043,0.86998 -0.140043,1.30483 0,0.53238 0.08135,1.03229 0.243912,1.49965 0.166624,0.46329 0.396241,0.8674 0.688847,1.21284 0.292607,0.34544 0.642117,0.61787 1.048515,0.81701 0.406398,0.19913 0.853326,0.29869 1.341004,0.29869 0.284478,0 0.572973,-0.0385 0.86558,-0.11576 0.292606,-0.0731 0.578964,-0.18715 0.859379,-0.34158 0.284478,-0.15849 0.55691,-0.35333 0.817004,-0.58498 0.264159,-0.23571 0.510356,-0.51242 0.73794,-0.8294 0.01219,-0.0163 0.01809,-0.0323 0.01809,-0.0486 0,-0.0284 -0.0123,-0.0568 -0.03669,-0.0853 -0.02438,-0.0325 -0.05275,-0.0609 -0.08527,-0.0853 -0.03251,-0.0284 -0.06891,-0.0531 -0.109554,-0.0734 -0.03657,-0.0244 -0.06708,-0.0426 -0.09147,-0.0548 -0.394206,0.40639 -0.784393,0.70079 -1.170471,0.88367 -0.382015,0.17882 -0.756138,0.26872 -1.121896,0.26872 -0.361694,0 -0.698898,-0.0856 -1.011824,-0.25632 -0.312927,-0.17069 -0.585357,-0.40834 -0.817005,-0.71313 -0.231646,-0.30887 -0.414175,-0.67872 -0.548287,-1.1095 -0.130047,-0.43078 -0.195337,-0.90607 -0.195337,-1.42627 v -0.10387 c 0.747773,-0.065 1.443036,-0.16244 2.085144,-0.29249 0.646174,-0.1341 1.206583,-0.30912 1.682068,-0.52451 0.475486,-0.21539 0.847472,-0.47714 1.115694,-0.786 0.272287,-0.30886 0.408244,-0.67068 0.408244,-1.08521 0,-0.28448 -0.0605,-0.5387 -0.182418,-0.76222 -0.121919,-0.22352 -0.286763,-0.41033 -0.494026,-0.56069 -0.203199,-0.15444 -0.440848,-0.27219 -0.713135,-0.35347 -0.272287,-0.0813 -0.558644,-0.12195 -0.859379,-0.12195 z m -0.579293,0.71313 c 0.178815,0 0.34528,0.0348 0.499711,0.10387 0.154432,0.0691 0.286631,0.16437 0.396358,0.28629 0.113792,0.11785 0.20104,0.25808 0.262,0.42064 0.06503,0.16256 0.09767,0.33758 0.09767,0.52452 0,0.28041 -0.08349,0.53036 -0.250113,0.74982 -0.166624,0.21539 -0.40803,0.40219 -0.725021,0.56069 -0.312926,0.15443 -0.699355,0.28236 -1.158585,0.38396 -0.455166,0.0975 -0.971141,0.16655 -1.548226,0.20722 0.02439,-0.23977 0.06506,-0.48545 0.121956,-0.73742 0.0569,-0.25197 0.130218,-0.49817 0.219625,-0.73794 0.09347,-0.23977 0.204816,-0.46512 0.334863,-0.67645 0.130048,-0.21539 0.280449,-0.40219 0.451135,-0.56068 0.170688,-0.16256 0.363902,-0.29049 0.579293,-0.38396 0.215391,-0.0935 0.455177,-0.14056 0.719336,-0.14056 z" /><path
       id="path12"
       style="font-size:24.9691px;font-family:Gabriola;-inkscape-font-specification:Gabriola;stroke-width:2.08076"
       d="M 12.863814 106.56559 C 12.52244 106.56559 12.162761 106.67318 11.78481 106.88857 C 11.40686 107.09989 11.026842 107.41248 10.644828 107.82701 C 10.266878 108.24154 9.8932722 108.75375 9.5234497 109.36335 C 9.1576914 109.96888 8.8162134 110.66577 8.4992228 111.45418 L 8.4258423 111.44849 C 8.4664823 110.83077 8.4991267 110.29394 8.5235107 109.83877 C 8.5519587 109.37955 8.5744341 108.99363 8.5906901 108.6807 C 8.6069434 108.36371 8.6171125 108.11589 8.6211792 107.93708 C 8.6293072 107.75824 8.6335815 107.63835 8.6335815 107.57741 C 8.6335815 107.39453 8.6148638 107.242 8.5782878 107.12008 C 8.541712 106.9941 8.4892455 106.89454 8.4201579 106.82139 C 8.3551341 106.74825 8.2775383 106.69741 8.1881307 106.66894 C 8.0987232 106.63641 8.0034428 106.62037 7.9018433 106.62037 C 7.8408835 106.62037 7.7472236 106.63052 7.6212402 106.65085 C 7.4993208 106.66705 7.3285818 106.69972 7.1091268 106.74852 C 6.8937358 106.79729 6.6255793 106.8642 6.3045247 106.94954 C 5.9834702 107.03489 5.5954206 107.14675 5.1402547 107.28492 L 5.231722 107.73606 C 5.5365206 107.65887 5.7966451 107.60375 6.0120361 107.57121 C 6.2274271 107.53868 6.4104726 107.52264 6.5608398 107.52264 C 6.7071432 107.52264 6.824899 107.54295 6.9143066 107.58361 C 7.003714 107.62019 7.070624 107.67693 7.115328 107.75415 C 7.1640953 107.83136 7.1967404 107.92877 7.2129964 108.04663 C 7.2292524 108.16043 7.2372843 108.29477 7.2372843 108.44919 C 7.2372843 108.83121 7.2292524 109.31454 7.2129964 109.89975 C 7.2008044 110.48091 7.1826034 111.12908 7.1582194 111.84434 C 7.1338354 112.5596 7.1033281 113.32604 7.0667521 114.1429 C 7.0301765 114.9557 6.9894997 115.78264 6.9447957 116.62389 C 6.9000921 117.46514 6.8513834 118.30225 6.7985514 119.13536 C 6.74572 119.97254 6.6889792 120.77112 6.6280192 121.53108 L 6.75566 121.53728 L 8.0356852 121.39052 C 8.0397492 120.2079 8.0643618 119.07213 8.1090658 117.98298 C 8.1537694 116.8979 8.1987205 115.84561 8.2434245 114.82555 C 8.5726069 115.15473 8.9237374 115.39024 9.2976237 115.53248 C 9.67151 115.67472 10.055802 115.74591 10.450008 115.74591 C 10.819831 115.74591 11.187542 115.68275 11.5533 115.55677 C 11.923123 115.43485 12.27477 115.25822 12.608016 115.02657 C 12.945327 114.79086 13.257917 114.50236 13.54646 114.16099 C 13.835003 113.81962 14.084958 113.43371 14.296285 113.00292 C 14.507612 112.56807 14.674594 112.09012 14.796513 111.56993 C 14.918433 111.04975 14.979447 110.49096 14.979447 109.89355 C 14.979447 109.6741 14.965003 109.43859 14.936556 109.18662 C 14.908111 108.93465 14.86154 108.68683 14.796513 108.44299 C 14.73149 108.19509 14.645861 107.95906 14.540198 107.73554 C 14.434534 107.50796 14.302852 107.30885 14.144356 107.13816 C 13.989925 106.96341 13.806879 106.82532 13.595553 106.72372 C 13.384225 106.61806 13.140165 106.56559 12.863814 106.56559 z M 12.339815 108.02235 C 12.551142 108.02235 12.729913 108.09942 12.876217 108.25386 C 13.026584 108.40422 13.146477 108.59958 13.235885 108.83935 C 13.329356 109.07506 13.396266 109.33894 13.436906 109.63155 C 13.481606 109.92416 13.504085 110.20889 13.504085 110.48525 C 13.504085 111.22895 13.424869 111.88302 13.266374 112.44792 C 13.111943 113.00874 12.894632 113.48028 12.614217 113.8623 C 12.337866 114.24431 12.006557 114.53281 11.620479 114.72788 C 11.238465 114.91889 10.819908 115.01417 10.364742 115.01417 C 10.019303 115.01417 9.6735512 114.94512 9.3281128 114.80695 C 8.9867383 114.66877 8.6436399 114.4536 8.2982015 114.16099 C 8.3185214 113.93747 8.3629558 113.67948 8.4320435 113.38688 C 8.5051951 113.09427 8.598855 112.7833 8.7126465 112.45412 C 8.830502 112.12493 8.966459 111.78773 9.1208903 111.44229 C 9.2753216 111.09279 9.4460606 110.75559 9.6330037 110.43047 C 9.8199469 110.10129 10.019057 109.79032 10.230383 109.49771 C 10.441711 109.2051 10.661158 108.95088 10.888741 108.73548 C 11.120388 108.51603 11.358037 108.34315 11.601876 108.21717 C 11.845714 108.08711 12.091912 108.02235 12.339815 108.02235 z " /><path
       id="path7"
       style="font-size:24.9691px;font-family:Gabriola;-inkscape-font-specification:Gabriola;stroke-width:2.08076"
       d="M -8.0754761 106.58368 C -8.5306419 106.58368 -8.9577479 106.65486 -9.3560181 106.7971 C -9.7502243 106.93934 -10.113661 107.13631 -10.446908 107.38828 C -10.77609 107.63618 -11.070997 107.93057 -11.331091 108.27194 C -11.591186 108.60925 -11.812771 108.97534 -11.99565 109.36955 C -12.174466 109.76376 -12.31256 110.17804 -12.410095 110.61289 C -12.503567 111.04773 -12.550138 111.48287 -12.550138 111.91772 C -12.550138 112.4501 -12.468785 112.95001 -12.306226 113.41737 C -12.139603 113.88066 -11.909985 114.28477 -11.617379 114.63021 C -11.324772 114.97565 -10.975263 115.24808 -10.568864 115.44722 C -10.162466 115.64635 -9.7155382 115.74591 -9.2278605 115.74591 C -8.9433818 115.74591 -8.6548869 115.70736 -8.3622803 115.63015 C -8.0696736 115.557 -7.7833159 115.443 -7.5029012 115.28857 C -7.2184225 115.13008 -6.9459916 114.93524 -6.6858968 114.70359 C -6.421738 114.46788 -6.1760571 114.19117 -5.9484741 113.87419 C -5.9362821 113.85792 -5.9298706 113.84188 -5.9298706 113.82561 C -5.9298706 113.79721 -5.9421769 113.76881 -5.9665609 113.74034 C -5.9909449 113.70788 -6.019315 113.67948 -6.051827 113.65508 C -6.0843387 113.62668 -6.120741 113.60203 -6.161381 113.5817 C -6.197957 113.5573 -6.2284643 113.53912 -6.2528483 113.52692 C -6.6470544 113.93331 -7.0372412 114.22771 -7.4233195 114.41059 C -7.8053337 114.58941 -8.1794565 114.67931 -8.5452148 114.67931 C -8.9069092 114.67931 -9.2441129 114.59368 -9.5570394 114.42299 C -9.8699659 114.2523 -10.142397 114.01465 -10.374044 113.70986 C -10.605691 113.40099 -10.788219 113.03114 -10.922331 112.60036 C -11.052378 112.16958 -11.117668 111.69429 -11.117668 111.17409 L -11.117668 111.07022 C -10.369895 111.0052 -9.6746326 110.90778 -9.0325236 110.77773 C -8.3863505 110.64363 -7.8259415 110.46861 -7.3504557 110.25322 C -6.8749699 110.03783 -6.5029843 109.77608 -6.2347616 109.46722 C -5.9624748 109.15836 -5.8265177 108.79654 -5.8265177 108.38201 C -5.8265177 108.09753 -5.8870161 107.84331 -6.0089355 107.61979 C -6.130855 107.39627 -6.2956992 107.20946 -6.5029622 107.0591 C -6.7061613 106.90466 -6.9438103 106.78691 -7.216097 106.70563 C -7.4883838 106.62435 -7.7747415 106.58368 -8.0754761 106.58368 z M -8.6547689 107.29681 C -8.4759537 107.29681 -8.309489 107.33159 -8.1550578 107.40068 C -8.0006265 107.46977 -7.8684271 107.56505 -7.7586995 107.68697 C -7.6449083 107.80482 -7.55766 107.94505 -7.4967 108.10761 C -7.4316767 108.27017 -7.3990316 108.44519 -7.3990316 108.63213 C -7.3990312 108.91254 -7.4825223 109.16249 -7.6491455 109.38195 C -7.8157688 109.59734 -8.0571753 109.78414 -8.3741659 109.94264 C -8.6870924 110.09707 -9.0735215 110.225 -9.5327515 110.3266 C -9.9879176 110.42411 -10.503892 110.49315 -11.080977 110.53382 C -11.056591 110.29405 -11.015914 110.04837 -10.959021 109.7964 C -10.902125 109.54443 -10.828803 109.29823 -10.739396 109.05846 C -10.645924 108.81869 -10.53458 108.59334 -10.404533 108.38201 C -10.274486 108.16662 -10.124085 107.97982 -9.9533976 107.82133 C -9.7827104 107.65877 -9.5894958 107.53084 -9.3741048 107.43737 C -9.1587138 107.3439 -8.9189277 107.29681 -8.6547689 107.29681 z " /><path
       id="path4"
       style="font-size:24.9691px;font-family:Gabriola;-inkscape-font-specification:Gabriola;stroke-width:2.08076"
       d="M -26.479521 106.58368 C -26.934687 106.58368 -27.361276 106.65486 -27.759546 106.7971 C -28.153752 106.93934 -28.517705 107.13631 -28.850952 107.38828 C -29.180135 107.63618 -29.474524 107.93057 -29.734619 108.27194 C -29.994714 108.60925 -30.216299 108.97534 -30.399178 109.36955 C -30.577993 109.76376 -30.716088 110.17804 -30.813623 110.61289 C -30.907094 111.04773 -30.953666 111.48287 -30.953666 111.91772 C -30.953666 112.4501 -30.87283 112.95001 -30.71027 113.41737 C -30.543648 113.88066 -30.31403 114.28477 -30.021423 114.63021 C -29.728817 114.97565 -29.379307 115.24808 -28.972909 115.44722 C -28.566511 115.64635 -28.119066 115.74591 -27.631388 115.74591 C -27.34691 115.74591 -27.058415 115.70736 -26.765808 115.63015 C -26.473201 115.557 -26.186844 115.443 -25.906429 115.28857 C -25.62195 115.13008 -25.34952 114.93524 -25.089425 114.70359 C -24.825266 114.46788 -24.579585 114.19117 -24.352002 113.87419 C -24.339809 113.85792 -24.333915 113.84188 -24.333915 113.82561 C -24.333915 113.79721 -24.345702 113.76881 -24.370089 113.74034 C -24.394469 113.70788 -24.422841 113.67948 -24.455355 113.65508 C -24.487867 113.62668 -24.524786 113.60203 -24.565426 113.5817 C -24.601999 113.5573 -24.632506 113.53912 -24.656893 113.52692 C -25.0511 113.93331 -25.441286 114.22771 -25.827364 114.41059 C -26.209378 114.58941 -26.582984 114.67931 -26.948743 114.67931 C -27.310437 114.67931 -27.647641 114.59368 -27.960567 114.42299 C -28.273494 114.2523 -28.545925 114.01465 -28.777572 113.70986 C -29.009219 113.40099 -29.192264 113.03114 -29.326375 112.60036 C -29.456423 112.16958 -29.521195 111.69429 -29.521195 111.17409 L -29.521195 111.07022 C -28.773423 111.0052 -28.078678 110.90778 -27.436568 110.77773 C -26.790396 110.64363 -26.22947 110.46861 -25.753984 110.25322 C -25.278498 110.03783 -24.906513 109.77608 -24.638289 109.46722 C -24.366003 109.15836 -24.230046 108.79654 -24.230046 108.38201 C -24.230046 108.09753 -24.291061 107.84331 -24.41298 107.61979 C -24.5349 107.39627 -24.699227 107.20946 -24.90649 107.0591 C -25.109689 106.90466 -25.347855 106.78691 -25.620142 106.70563 C -25.892428 106.62435 -26.178786 106.58368 -26.479521 106.58368 z M -27.058813 107.29681 C -26.879998 107.29681 -26.713016 107.33159 -26.558586 107.40068 C -26.404154 107.46977 -26.271955 107.56505 -26.162227 107.68697 C -26.048437 107.80482 -25.961188 107.94505 -25.900228 108.10761 C -25.835201 108.27017 -25.802559 108.44519 -25.802559 108.63213 C -25.802559 108.91254 -25.88605 109.16249 -26.052673 109.38195 C -26.219297 109.59734 -26.46122 109.78414 -26.77821 109.94264 C -27.091136 110.09707 -27.477049 110.225 -27.936279 110.3266 C -28.391445 110.42411 -28.907937 110.49315 -29.485022 110.53382 C -29.460636 110.29405 -29.419959 110.04837 -29.363066 109.7964 C -29.30617 109.54443 -29.232848 109.29823 -29.143441 109.05846 C -29.049969 108.81869 -28.938108 108.59334 -28.808061 108.38201 C -28.678013 108.16662 -28.527613 107.97982 -28.356925 107.82133 C -28.186238 107.65877 -27.99354 107.53084 -27.778149 107.43737 C -27.562758 107.3439 -27.322972 107.29681 -27.058813 107.29681 z " /><path
       style="font-size:24.9691px;font-family:Gabriola;-inkscape-font-specification:Gabriola;stroke-width:2.08076"
       d="m 34.937845,113.2161 q 0.04267,0.4633 0.243839,0.79857 0.207263,0.33528 0.505965,0.54864 0.298703,0.21336 0.658365,0.31699 0.365759,0.10363 0.725421,0.10363 0.335278,0 0.646173,-0.0914 0.310895,-0.0914 0.548637,-0.26212 0.237743,-0.17069 0.377951,-0.42062 0.146303,-0.24994 0.146303,-0.56083 0,-0.32309 -0.152399,-0.56693 -0.1524,-0.24384 -0.40843,-0.44501 -0.256031,-0.20116 -0.597406,-0.37185 -0.335278,-0.17069 -0.701036,-0.34747 -0.323087,-0.1524 -0.652269,-0.3048 -0.323087,-0.15849 -0.627885,-0.34137 -0.304799,-0.18288 -0.573022,-0.39624 -0.262127,-0.21336 -0.463294,-0.46939 -0.195071,-0.26213 -0.310894,-0.57912 -0.109728,-0.32308 -0.109728,-0.71323 0,-0.42062 0.146304,-0.77419 0.146303,-0.35356 0.396238,-0.63398 0.256031,-0.28651 0.585213,-0.49987 0.335279,-0.21336 0.713229,-0.35356 0.37795,-0.14631 0.774188,-0.21336 0.402334,-0.0731 0.780285,-0.0731 0.487677,0 0.920491,0.10972 0.43891,0.10364 0.761997,0.3109 0.329182,0.20117 0.518157,0.49377 0.195072,0.29261 0.195072,0.65837 0,0.1402 -0.04877,0.3048 -0.04877,0.16459 -0.164591,0.31089 -0.115824,0.14021 -0.304799,0.23774 -0.188975,0.0975 -0.463294,0.10364 -0.256031,0 -0.536445,-0.0793 l -0.01829,-0.061 q 0.08534,-0.19507 0.121919,-0.35966 0.03658,-0.1646 0.03658,-0.3048 -0.0061,-0.28042 -0.146303,-0.46939 -0.134112,-0.19507 -0.341375,-0.31699 -0.207263,-0.12192 -0.463294,-0.17679 -0.249935,-0.0549 -0.493773,-0.0549 -0.432814,0 -0.774189,0.11582 -0.341374,0.11583 -0.579117,0.3109 -0.231647,0.18897 -0.359663,0.43281 -0.121919,0.24384 -0.121919,0.50597 0,0.33528 0.176783,0.6035 0.176783,0.26213 0.46939,0.48768 0.292607,0.21945 0.670557,0.41452 0.384046,0.19507 0.798572,0.39014 0.463294,0.21946 0.920492,0.4572 0.457198,0.23165 0.81686,0.53035 0.359663,0.2987 0.579118,0.68885 0.225551,0.38404 0.225551,0.9083 0,0.62788 -0.280415,1.11556 -0.274319,0.48768 -0.737613,0.82296 -0.463294,0.33527 -1.066795,0.50596 -0.597405,0.17678 -1.243578,0.17678 -0.323087,0 -0.670557,-0.0488 -0.341374,-0.0488 -0.664461,-0.14631 -0.323086,-0.0975 -0.615693,-0.23774 -0.286511,-0.1463 -0.505966,-0.32918 -0.213359,-0.18898 -0.341374,-0.41453 -0.12192,-0.23164 -0.12192,-0.50596 0,-0.23775 0.09754,-0.40234 0.103631,-0.16459 0.268223,-0.26822 0.164591,-0.10363 0.365758,-0.1524 0.207263,-0.0549 0.420622,-0.061 z"
       id="path17" /><path
       style="font-size:24.9691px;font-family:Gabriola;-inkscape-font-specification:Gabriola;stroke-width:2.08076"
       d="m 31.13396,102.23726 q -0.256031,1.15823 -0.432814,2.39571 -0.170688,1.23139 -0.292607,2.4323 0.286511,0.0122 0.554733,0.0183 0.274319,0.006 0.505966,0.0122 0.237743,0.006 0.426718,0.006 0.195071,0 0.323087,0 0.554733,0 0.908299,-0.067 0.03048,0.10363 0.04877,0.18897 0.01829,0.0854 0.01829,0.1585 0,0.26822 -0.225551,0.34747 -0.219455,0.0793 -0.640077,0.0793 -0.402334,0 -0.902204,-0.0488 -0.493774,-0.0488 -1.085083,-0.0914 -0.06706,0.65227 -0.115823,1.27406 -0.04267,0.61569 -0.07315,1.16433 -0.02438,0.54863 -0.03658,1.01802 -0.01219,0.46939 -0.01219,0.81686 0,0.65227 0.06706,1.16433 0.06706,0.51207 0.237743,0.87173 0.170687,0.35357 0.46939,0.54254 0.298702,0.18898 0.7559,0.18898 0.329183,0 0.731517,-0.11583 0.40843,-0.11582 0.926588,-0.37185 0.164591,0.16459 0.188975,0.40233 -0.377951,0.24994 -0.761997,0.4572 -0.384046,0.20117 -0.7559,0.34747 -0.371855,0.1463 -0.719325,0.22555 -0.34747,0.0793 -0.658365,0.0793 -0.40843,0 -0.749805,-0.1524 -0.335278,-0.1463 -0.585213,-0.52425 -0.243839,-0.38405 -0.384046,-1.03022 -0.134111,-0.64618 -0.134111,-1.63372 0,-0.55474 0.01829,-1.13995 0.01829,-0.59131 0.04877,-1.19481 0.03048,-0.6035 0.07925,-1.207 0.04877,-0.6035 0.109727,-1.18872 -0.481581,0.006 -0.896107,0.0427 -0.408431,0.0305 -0.701037,0.10364 -0.01829,-0.0366 -0.01829,-0.0854 0,-0.12801 0.121919,-0.23774 0.128016,-0.11582 0.347471,-0.20726 0.225551,-0.0914 0.536445,-0.1524 0.310895,-0.061 0.682749,-0.0854 0.140207,-1.27406 0.298703,-2.40791 0.158495,-1.13385 0.31699,-2.02386 0.03048,-0.15849 0.109728,-0.26213 0.08534,-0.10363 0.195071,-0.16459 0.109727,-0.061 0.237743,-0.0853 0.128015,-0.0244 0.249935,-0.0244 0.201167,0 0.359662,0.0427 0.164591,0.0427 0.304799,0.12192 z"
       id="path16" /><path
       style="font-size:24.9691px;font-family:Gabriola;-inkscape-font-specification:Gabriola;stroke-width:2.08076"
       d="m 3.7138962,106.83972 q -0.1036315,0.69494 -0.1767832,1.39597 -0.073152,0.69494 -0.1219194,1.34721 -0.042672,0.65227 -0.067056,1.23749 -0.018288,0.57911 -0.018288,1.0485 0,0.63398 0.018288,1.09118 0.018288,0.4511 0.06096,0.762 0.042672,0.31089 0.1036316,0.49987 0.067056,0.18288 0.1584952,0.28651 0.097536,0.0975 0.219455,0.12801 0.1280154,0.0305 0.2865107,0.0305 0.2926066,0 0.6278851,-0.0853 0.3413744,-0.0914 0.6888448,-0.24993 l 0.1158235,0.31699 q -0.219455,0.17678 -0.5547335,0.35966 -0.3291824,0.18288 -0.6949408,0.33528 -0.3657583,0.1524 -0.7193246,0.24384 -0.3474704,0.0975 -0.6035013,0.0975 -0.1706872,0 -0.3108945,-0.0305 -0.1402074,-0.0244 -0.2560308,-0.13411 -0.1097275,-0.10973 -0.2011671,-0.32309 -0.085344,-0.21336 -0.1463033,-0.57911 -0.054864,-0.36576 -0.085344,-0.9144 -0.03048,-0.54864 -0.03048,-1.32892 0,-0.4572 0.0061,-1.03022 0.012192,-0.57912 0.03048,-1.23748 0.018288,-0.66446 0.048768,-1.39598 0.03048,-0.73761 0.079248,-1.5179 0.012192,-0.17069 0.09144,-0.27432 0.079248,-0.10972 0.1950711,-0.16459 0.1158235,-0.061 0.2438389,-0.0792 0.1341114,-0.0244 0.2438389,-0.0244 0.4084301,0 0.7680924,0.18898 z"
       id="path11" /><path
       style="font-size:24.9691px;font-family:Gabriola;-inkscape-font-specification:Gabriola;stroke-width:2.08076"
       d="m 3.1835467,104.08434 q -0.213359,0 -0.3779503,-0.0853 -0.1645912,-0.0914 -0.2804147,-0.23164 -0.1158235,-0.14631 -0.1767832,-0.32919 -0.06096,-0.18897 -0.06096,-0.38404 0,-0.27432 0.09144,-0.48158 0.09144,-0.21336 0.2377429,-0.35357 0.1463033,-0.1463 0.3230865,-0.21336 0.1767832,-0.0731 0.3474704,-0.0731 0.207263,0 0.3718543,0.0792 0.1645912,0.0732 0.2804147,0.20726 0.1219194,0.13411 0.1828791,0.31089 0.067056,0.17069 0.067056,0.37186 0,0.21336 -0.073152,0.42672 -0.073152,0.20726 -0.2072631,0.37795 -0.1280154,0.17068 -0.3169905,0.27431 -0.1828792,0.10364 -0.4084301,0.10364 z"
       id="path10" /><path
       style="font-size:24.9691px;font-family:Gabriola;-inkscape-font-specification:Gabriola;stroke-width:2.08076"
       d="m -1.5956942,102.23726 q -0.2560308,1.15823 -0.432814,2.39571 -0.1706872,1.23139 -0.2926066,2.4323 0.2865107,0.0122 0.5547334,0.0183 0.2743188,0.006 0.5059657,0.0122 0.2377429,0.006 0.42671804,0.006 0.1950711,0 0.32308651,0 0.55473344,0 0.90829981,-0.067 0.0304799,0.10363 0.0487678,0.18897 0.0182879,0.0854 0.0182879,0.1585 0,0.26822 -0.22555097,0.34747 -0.21945498,0.0793 -0.64007705,0.0793 -0.40233414,0 -0.90220384,-0.0488 -0.4937737,-0.0488 -1.085083,-0.0914 -0.067056,0.65227 -0.1158235,1.27406 -0.042672,0.61569 -0.073152,1.16433 -0.024384,0.54863 -0.036576,1.01802 -0.012192,0.46939 -0.012192,0.81686 0,0.65227 0.067056,1.16433 0.067056,0.51207 0.2377429,0.87173 0.1706872,0.35357 0.4693898,0.54254 0.2987027,0.18898 0.7559005,0.18898 0.32918253,0 0.73151668,-0.11583 0.40843011,-0.11582 0.92658773,-0.37185 0.16459124,0.16459 0.18897513,0.40233 -0.37795026,0.24994 -0.76199649,0.4572 -0.38404623,0.20117 -0.75590052,0.34747 -0.37185433,0.1463 -0.71932473,0.22555 -0.3474704,0.0793 -0.6583649,0.0793 -0.4084301,0 -0.7498046,-0.1524 -0.3352784,-0.1463 -0.5852133,-0.52425 -0.2438388,-0.38405 -0.3840462,-1.03022 -0.1341114,-0.64618 -0.1341114,-1.63372 0,-0.55474 0.018288,-1.13995 0.018288,-0.59131 0.048768,-1.19481 0.03048,-0.6035 0.079248,-1.207 0.048768,-0.6035 0.1097275,-1.18872 -0.4815817,0.006 -0.8961078,0.0427 -0.4084302,0.0305 -0.7010368,0.10364 -0.018288,-0.0366 -0.018288,-0.0854 0,-0.12801 0.1219194,-0.23774 0.1280154,-0.11582 0.3474704,-0.20726 0.225551,-0.0914 0.5364455,-0.1524 0.3108946,-0.061 0.6827489,-0.0854 0.1402074,-1.27406 0.2987026,-2.40791 0.1584953,-1.13385 0.3169906,-2.02386 0.03048,-0.15849 0.1097275,-0.26213 0.085344,-0.10363 0.1950711,-0.16459 0.1097275,-0.061 0.2377429,-0.0853 0.1280154,-0.0244 0.2499348,-0.0244 0.2011671,0 0.3596624,0.0427 0.1645912,0.0427 0.3047985,0.12192 z"
       id="path9" /><path
       style="font-size:24.9691px;font-family:Gabriola;-inkscape-font-specification:Gabriola;stroke-width:2.08076"
       d="m -21.998911,108.40638 q 0,-0.24993 -0.03658,-0.42062 -0.03658,-0.17069 -0.115823,-0.26822 -0.07315,-0.10364 -0.188975,-0.14631 -0.115824,-0.0427 -0.274319,-0.0427 -0.219455,0 -0.524254,0.061 -0.304798,0.061 -0.694941,0.16459 l -0.09144,-0.43891 q 0.432814,-0.1524 0.829052,-0.27432 0.402334,-0.12801 0.737613,-0.21945 0.335278,-0.0914 0.591309,-0.14021 0.256031,-0.0488 0.402334,-0.0488 0.353566,0 0.548638,0.21336 0.201167,0.20726 0.201167,0.71933 0,0.061 -0.01219,0.28651 -0.01219,0.21945 -0.03658,0.56083 -0.01829,0.34137 -0.04877,0.78638 -0.03048,0.43891 -0.07315,0.93878 -0.03657,0.49987 -0.08534,1.03631 -0.04877,0.53035 -0.103632,1.0607 l 0.03658,0.006 q 0.463294,-1.57276 0.993644,-2.65175 0.530349,-1.08508 1.078987,-1.75564 0.548637,-0.67665 1.091179,-0.97536 0.542541,-0.2987 1.036315,-0.2987 0.341374,0 0.658365,0.12802 0.31699,0.12801 0.560829,0.40843 0.249935,0.28041 0.396238,0.72542 0.146304,0.43891 0.146304,1.06679 0,0.18288 -0.02438,0.49378 -0.01829,0.30479 -0.04877,0.68274 -0.03048,0.37795 -0.07315,0.80467 -0.03658,0.42063 -0.06705,0.82906 -0.03048,0.40843 -0.05486,0.78028 -0.01829,0.36576 -0.01829,0.64008 0,0.47548 0.03658,0.77419 0.04267,0.2987 0.134111,0.47548 0.09144,0.17069 0.243839,0.23774 0.152399,0.061 0.371854,0.061 0.316991,0 0.658365,-0.0853 0.341375,-0.0914 0.688845,-0.24993 l 0.115824,0.31699 q -0.219455,0.17678 -0.554734,0.35966 -0.335278,0.18288 -0.707133,0.33528 -0.365758,0.1524 -0.731516,0.24384 -0.365758,0.0975 -0.646173,0.0975 -0.329183,0 -0.518158,-0.17678 -0.188975,-0.17679 -0.28651,-0.48158 -0.09144,-0.3048 -0.12192,-0.71323 -0.02438,-0.40843 -0.02438,-0.87782 0,-0.57302 0.03658,-1.17653 0.04267,-0.60959 0.09144,-1.15823 0.04877,-0.54864 0.08534,-0.99364 0.04267,-0.45111 0.04267,-0.71933 0,-0.71323 -0.268223,-1.04851 -0.268223,-0.34137 -0.713228,-0.34137 -0.353567,0 -0.743709,0.2987 -0.390142,0.29871 -0.780284,0.82296 -0.384047,0.51816 -0.743709,1.23139 -0.353566,0.70713 -0.640077,1.53618 -0.286511,0.82296 -0.475486,1.72516 -0.188975,0.9022 -0.237743,1.80441 l -1.274058,0.15849 -0.09754,-0.006 q 0.04877,-0.57912 0.09144,-1.26187 0.04267,-0.68275 0.07925,-1.38378 0.03658,-0.70714 0.06096,-1.39598 0.03048,-0.69494 0.04877,-1.29235 0.02438,-0.6035 0.03048,-1.07899 0.01219,-0.47548 0.01219,-0.7498 z"
       id="path6" /><path
       style="font-size:24.9691px;font-family:Gabriola;-inkscape-font-specification:Gabriola;stroke-width:2.08076"
       d="m -36.16595,101.07902 q 0.822956,0 1.511801,0.14021 0.694941,0.14021 1.194811,0.35357 0.499869,0.20726 0.780284,0.445 0.280415,0.23774 0.280415,0.43891 0,0.42062 -0.03658,1.09118 -0.03048,0.67056 -0.07925,1.62153 l -0.530349,-0.0122 q 0.0061,-0.0854 0.0061,-0.16459 0.0061,-0.0792 0.0061,-0.1646 -0.0061,-0.42062 -0.09144,-0.80466 -0.08534,-0.39015 -0.323086,-0.72542 -0.249935,-0.34747 -0.597406,-0.6096 -0.341374,-0.26213 -0.7559,-0.43891 -0.40843,-0.18288 -0.87782,-0.26822 -0.46939,-0.0914 -0.963164,-0.0914 -0.853436,0 -1.548377,0.26212 -0.69494,0.25603 -1.243578,0.71933 -0.548637,0.4572 -0.950971,1.08508 -0.402335,0.62179 -0.670557,1.3594 -0.262127,0.73152 -0.390143,1.54228 -0.128015,0.81077 -0.128015,1.63372 0,1.13995 0.188975,2.06654 0.188975,0.92049 0.53035,1.63981 0.341374,0.71933 0.810764,1.24358 0.475486,0.51816 1.042411,0.85954 0.573022,0.33527 1.219195,0.49986 0.652269,0.1585 1.341113,0.1585 0.548638,0 0.926588,-0.0731 0.37795,-0.0793 0.615693,-0.20726 0.237743,-0.13412 0.353567,-0.3109 0.121919,-0.18288 0.146303,-0.38405 0.04877,-0.36575 0.06096,-0.80466 0.01829,-0.44501 0.01829,-0.87173 v -0.54864 q 0,-0.4511 -0.06706,-0.70103 -0.06096,-0.25603 -0.231647,-0.37795 -0.164591,-0.12802 -0.463294,-0.1524 -0.298702,-0.0305 -0.768092,-0.0305 h -0.298703 q -0.07925,0 -0.182879,0.006 -0.103632,0 -0.256031,0 l -0.04267,-0.5974 q 0.09754,0.006 0.176783,0.006 0.07925,0 0.140208,0 h 0.262127 q 0.402334,0 0.853436,-0.006 0.451102,-0.006 0.841244,-0.0122 0.396238,-0.0122 0.682749,-0.0183 0.28651,-0.006 0.359662,-0.006 0.329182,0 0.46939,0.16459 0.146303,0.1646 0.146303,0.56693 0,0.24994 -0.01829,0.62789 -0.01219,0.37795 -0.03048,0.84734 -0.01829,0.46329 -0.04267,0.99973 -0.02438,0.53645 -0.04267,1.09728 -0.0061,0.21945 -0.03048,0.37185 -0.02438,0.14631 -0.08534,0.24994 -0.05486,0.10363 -0.152399,0.18288 -0.09754,0.0731 -0.249935,0.1463 -0.176783,0.0914 -0.49987,0.20117 -0.323086,0.10363 -0.7559,0.19507 -0.426718,0.0975 -0.93878,0.15849 -0.512061,0.061 -1.066795,0.061 -0.7559,0 -1.548377,-0.12801 -0.78638,-0.12802 -1.530089,-0.43281 -0.743708,-0.3048 -1.408169,-0.80467 -0.658365,-0.50597 -1.152139,-1.25577 -0.487678,-0.7559 -0.774188,-1.77393 -0.286511,-1.02412 -0.286511,-2.36524 0,-0.95097 0.195071,-1.90804 0.201167,-0.95707 0.597405,-1.83489 0.396239,-0.87782 0.987548,-1.63372 0.597405,-0.76199 1.389881,-1.32282 0.792477,-0.56083 1.78612,-0.87782 0.993644,-0.32309 2.188454,-0.32309 z"
       id="text1" /><path
       id="path5-3"
       style="fill:#ffffff;stroke:none;stroke-width:0.128394;stroke-dasharray:none"
       d="m -19.235126,133.61458 c -0.836988,-1e-5 -1.515498,1.1071 -1.515482,2.47277 6e-6,1.36564 0.67851,2.47271 1.515482,2.4727 0.836945,-5e-5 1.515409,-1.1071 1.515415,-2.4727 1.6e-5,-1.36563 -0.678454,-2.47272 -1.515415,-2.47277 z m 3.610392,0 c -0.836988,-1e-5 -1.515498,1.1071 -1.515482,2.47277 6e-6,1.36564 0.67851,2.47271 1.515482,2.4727 0.836945,-5e-5 1.515409,-1.1071 1.515415,-2.4727 1.6e-5,-1.36563 -0.678454,-2.47272 -1.515415,-2.47277 z m -6.140951,4.6179 c -0.677742,9.4e-4 -1.272696,0.73604 -1.457029,1.80019 v -0.008 c -0.123798,0.34863 -0.01964,1.21452 -0.01964,1.21452 0.153383,1.13051 0.767027,1.93598 1.476669,1.93826 0.836972,1e-5 1.515476,-1.10706 1.515482,-2.4727 -6e-6,-1.36565 -0.67851,-2.47271 -1.515482,-2.47271 z m 8.671444,1e-5 c -0.836972,-1e-5 -1.515476,1.10706 -1.515482,2.4727 6e-6,1.36564 0.67851,2.47271 1.515482,2.4727 0.70964,-0.002 1.323285,-0.80774 1.476667,-1.93826 0,0 0.104157,-0.86589 -0.01964,-1.21452 v 10e-4 c -0.185748,-1.06134 -0.780357,-1.79344 -1.457027,-1.79361 z m -4.335723,0.72486 c -0.399035,-2e-5 -0.791045,0.11877 -1.136628,0.34442 -0.114603,0.0748 -0.223209,0.16087 -0.32458,0.2571 -0.101374,0.0962 -0.195128,0.20223 -0.280193,0.31688 -0.08508,0.11468 -0.161136,0.23754 -0.227312,0.36718 -0.06051,0.12037 -0.112315,0.24606 -0.154925,0.37587 -0.02418,0.0789 -0.04495,0.15902 -0.06224,0.24018 -0.01378,0.0516 -0.02613,0.1037 -0.03702,0.15619 -0.01577,0.0953 -0.02675,0.19156 -0.03291,0.28828 -0.0038,0.039 -0.0069,0.0781 -0.0091,0.11724 -0.0031,0.10507 -5.36e-4,0.21025 0.0077,0.31496 2.67e-4,0.0184 6.69e-4,0.0368 0.0013,0.0552 l -0.0066,-0.0115 c 0.04654,0.77231 -0.270076,1.39267 -0.949922,1.86103 l 0.0013,6e-5 c -0.03533,0.0206 -0.07017,0.0423 -0.104501,0.065 -0.04985,0.0284 -0.09876,0.0588 -0.146632,0.0912 -0.06138,0.0438 -0.12088,0.0909 -0.178279,0.14119 -0.04247,0.0346 -0.08388,0.0708 -0.12414,0.10855 -0.06048,0.0614 -0.117995,0.12647 -0.172309,0.19486 -0.03087,0.0349 -0.06085,0.0707 -0.0899,0.10756 -0.08004,0.10892 -0.151987,0.22514 -0.215104,0.34747 -0.199539,0.39086 -0.304595,0.83424 -0.304609,1.28558 1.4e-5,0.45134 0.10507,0.89472 0.304609,1.28558 0.06618,0.12962 0.142239,0.25246 0.227313,0.36711 0.08504,0.11465 0.178774,0.22068 0.280125,0.31689 0.101371,0.0962 0.209977,0.18225 0.324581,0.2571 0.345582,0.22565 0.737592,0.34443 1.136629,0.34442 0.122411,-9.4e-4 0.244559,-0.0129 0.365252,-0.0361 0.07258,-0.0157 0.144428,-0.0355 0.215303,-0.0592 0.04631,-0.0123 0.09227,-0.0262 0.137807,-0.0418 0.08094,-0.0322 0.160197,-0.0696 0.237397,-0.112 0.03174,-0.0157 0.06315,-0.0323 0.09422,-0.0497 0.08195,-0.0494 0.16114,-0.10449 0.237132,-0.16488 0.014,-0.009 0.02792,-0.0192 0.04173,-0.029 l -0.0055,0.0121 c 0.568082,-0.43174 1.201374,-0.43174 1.899909,0 l -6.69e-4,-0.001 c 0.03355,0.0244 0.06767,0.0477 0.10231,0.0701 0.0465,0.0345 0.0941,0.0671 0.142717,0.0977 0.0642,0.0382 0.129986,0.0729 0.197123,0.10403 0.04789,0.0244 0.0965,0.0469 0.14577,0.0675 0.07671,0.0283 0.154689,0.0519 0.233615,0.0708 0.04271,0.013 0.08574,0.0246 0.12905,0.0347 0.123338,0.0239 0.24821,0.0363 0.373346,0.037 0.399042,-1e-5 0.791053,-0.11882 1.13663,-0.34449 0.111272,-0.0731 0.216859,-0.15667 0.315623,-0.24994 0.0047,-0.004 0.0094,-0.009 0.01413,-0.013 0.09586,-0.0918 0.18483,-0.19242 0.265994,-0.30083 0.0053,-0.007 0.01052,-0.014 0.01573,-0.0211 0.0799,-0.10875 0.151736,-0.22477 0.214773,-0.34687 0.0038,-0.007 0.0075,-0.015 0.01121,-0.0225 0.06291,-0.12428 0.116529,-0.25429 0.160299,-0.38867 0.0012,-0.004 0.0025,-0.008 0.0037,-0.0125 0.04318,-0.13556 0.0762,-0.27498 0.09873,-0.4168 8.03e-4,-0.004 0.0015,-0.008 0.0023,-0.0125 0.0215,-0.14105 0.03256,-0.28389 0.03304,-0.42702 4.01e-4,-0.005 8.03e-4,-0.01 0.0012,-0.0149 -2.68e-4,-0.004 -6.69e-4,-0.008 -9.37e-4,-0.0117 -6.69e-4,-0.1411 -0.01148,-0.28191 -0.03251,-0.42099 -0.0015,-0.009 -0.003,-0.0189 -0.0045,-0.0283 -0.02232,-0.13952 -0.05481,-0.27671 -0.09714,-0.41017 -0.0022,-0.007 -0.0045,-0.0133 -0.0068,-0.0199 -0.04427,-0.13647 -0.0987,-0.26845 -0.162689,-0.39451 -0.06192,-0.11951 -0.132284,-0.23316 -0.210394,-0.33984 -0.04815,-0.0629 -0.09896,-0.12309 -0.152271,-0.18041 -0.0328,-0.0395 -0.0667,-0.0778 -0.101648,-0.11491 -0.06485,-0.0629 -0.132792,-0.12164 -0.203492,-0.1759 -0.02824,-0.0235 -0.05695,-0.0462 -0.08612,-0.0682 -0.07883,-0.0555 -0.160592,-0.10554 -0.24483,-0.14975 -0.0142,-0.009 -0.02849,-0.0177 -0.04286,-0.0263 l 0.01207,-8e-4 c -0.614614,-0.34083 -0.931293,-0.96113 -0.949983,-1.86122 l -6.7e-4,0.001 c 2.68e-4,-0.003 4.02e-4,-0.006 6.7e-4,-0.009 0.0015,-0.0181 0.0029,-0.0361 0.0041,-0.0542 0.0024,-0.0365 0.004,-0.0731 0.005,-0.10974 5.36e-4,-0.0151 8.03e-4,-0.0302 0.0011,-0.0454 4.02e-4,-0.0397 1.1e-5,-0.0794 -0.0012,-0.11909 -4.02e-4,-0.014 -9.37e-4,-0.028 -0.0015,-0.042 -0.0018,-0.041 -0.0045,-0.0819 -0.008,-0.12268 -0.0011,-0.0124 -0.0022,-0.0248 -0.0035,-0.0372 -0.0041,-0.0421 -0.0092,-0.084 -0.01519,-0.12579 -0.0016,-0.0109 -0.0032,-0.0217 -0.005,-0.0326 -0.0066,-0.0428 -0.01418,-0.0853 -0.02269,-0.12766 -0.0021,-0.0102 -0.0042,-0.0204 -0.0064,-0.0306 -0.0092,-0.0434 -0.01944,-0.0866 -0.03065,-0.12938 -0.0021,-0.008 -0.0042,-0.0154 -0.0063,-0.0231 -0.01216,-0.0449 -0.02542,-0.0894 -0.03974,-0.13349 -0.0017,-0.005 -0.0034,-0.0103 -0.0052,-0.0154 -0.01514,-0.0457 -0.03142,-0.0909 -0.04883,-0.13562 -0.0017,-0.004 -0.0034,-0.008 -0.005,-0.0125 -0.01829,-0.0462 -0.03778,-0.0918 -0.05846,-0.13675 l -0.0013,-0.003 c -0.01443,-0.0312 -0.02943,-0.0621 -0.04498,-0.0926 -0.0019,-0.003 -0.0039,-0.006 -0.0058,-0.009 -0.06293,-0.12191 -0.134632,-0.23775 -0.214376,-0.34634 -0.0055,-0.007 -0.01097,-0.0148 -0.01652,-0.0222 -0.08102,-0.10821 -0.169806,-0.20865 -0.265463,-0.3003 -0.0048,-0.004 -0.0096,-0.009 -0.0144,-0.0131 -0.09872,-0.0932 -0.204267,-0.17683 -0.31549,-0.24987 -0.345564,-0.22564 -0.737548,-0.34443 -1.136562,-0.34442 z"
       sodipodi:nodetypes="csccccccccscccccsscccccccccccscccccccccccccccccccscsccccccccccccccccccccccccccccccccccccccccccccccccccccccscccccccccccccccccccccc" /><path
       style="fill:#000000;stroke-width:0.264583"
       d="m -13.978975,141.05341 c -0.362227,2.22899 -2.99099,2.19306 -4.688289,2.6644 -1.220727,0.339 -2.966747,1.59319 -2.066868,3.06163 0.969635,1.58227 2.636244,-0.0789 3.924434,0.44675 1.661943,0.67811 3.528833,1.218 4.600907,-1.42115 0.646067,-1.59044 -1.334507,-2.93663 -1.693398,-4.51212 z"
       id="path19"
       sodipodi:nodetypes="csssscc" /><path
       style="fill:#000000;stroke-width:0.264583"
       d="m -16.807226,139.9682 c -0.264159,0 -0.503945,0.0471 -0.719336,0.14056 -0.215391,0.0935 -0.408605,0.2214 -0.579293,0.38396 -0.170686,0.15849 -0.321087,0.3453 -0.451135,0.56069 -0.130047,0.21133 -0.241393,0.43667 -0.334863,0.67644 -0.08941,0.23977 -0.162725,0.48597 -0.219625,0.73794 -0.0569,0.25197 -0.09757,0.49765 -0.121956,0.73742 0.577085,-0.0407 1.09306,-0.10972 1.548226,-0.20722 0.45923,-0.1016 0.845659,-0.22952 1.158585,-0.38395 0.316991,-0.1585 0.558396,-0.3453 0.72502,-0.56069 0.166623,-0.21946 0.250114,-0.46942 0.250114,-0.74983 0,-0.18694 -0.03264,-0.36195 -0.09767,-0.52451 -0.06096,-0.16256 -0.148207,-0.3028 -0.261999,-0.42065 -0.109727,-0.12192 -0.241926,-0.21719 -0.396358,-0.28629 -0.154431,-0.0691 -0.320896,-0.10387 -0.499711,-0.10387 z"
       id="path18-3" /><path
       id="path5-4"
       style="fill:#ffffff;stroke:none;stroke-width:0.128394;stroke-dasharray:none"
       d="m -13.094241,138.23249 c -0.836972,-1e-5 -1.515476,1.10706 -1.515482,2.4727 6e-6,1.36564 0.67851,2.47271 1.515482,2.4727 0.70964,-0.002 1.323285,-0.80774 1.476667,-1.93826 0,0 0.104157,-0.86589 -0.01964,-1.21452 v 10e-4 c -0.185749,-1.06168 -0.780358,-1.79378 -1.457028,-1.79395 z"
       sodipodi:nodetypes="cccccccc" /></g></svg>
